<?xml version="1.0" standalone="no"?>
<!DOCTYPE svg PUBLIC "-//W3C//DTD SVG 20010904//EN"
 "http://www.w3.org/TR/2001/REC-SVG-20010904/DTD/svg10.dtd">
<svg version="1.0" xmlns="http://www.w3.org/2000/svg"
 width="1686.000000pt" height="882.000000pt" viewBox="0 0 1686.000000 882.000000"
 preserveAspectRatio="xMidYMid meet">

<g transform="translate(0.000000,882.000000) scale(0.100000,-0.100000)"
fill="#000000" stroke="none">
<path d="M0 4410 l0 -4410 770 0 770 0 0 1555 c0 1030 -3 1555 -10 1555 -7 0
-10 180 -10 521 0 344 3 518 10 514 7 -4 10 134 10 408 l0 414 23 34 c12 18
38 44 56 56 l34 23 4887 0 4887 0 34 -23 c18 -12 44 -38 56 -56 23 -34 23 -37
23 -377 l0 -344 1834 0 1833 0 34 -23 c18 -12 44 -38 56 -56 l23 -34 0 -2083
0 -2084 770 0 770 0 0 4410 0 4410 -8430 0 -8430 0 0 -4410z m2570 3154 c116
-27 205 -79 300 -174 132 -132 190 -268 190 -450 0 -182 -58 -318 -190 -450
-132 -132 -268 -190 -450 -190 -182 0 -318 58 -450 190 -132 132 -190 268
-190 450 0 182 58 318 190 450 93 94 183 147 295 174 80 19 224 19 305 0z
m1464 -540 c100 -248 189 -463 199 -477 10 -16 33 -30 56 -37 38 -10 51 -25
51 -58 0 -15 -19 -17 -187 -17 -114 0 -191 4 -195 10 -15 20 -9 55 10 55 9 0
34 5 55 11 49 13 48 26 -11 169 l-48 115 -181 3 -181 2 -16 -42 c-8 -24 -25
-68 -36 -98 -11 -30 -20 -70 -20 -88 0 -28 5 -35 35 -48 19 -7 45 -14 59 -14
16 0 26 -7 30 -22 14 -55 19 -53 -166 -53 -104 0 -176 4 -180 10 -4 6 -8 22
-8 38 0 21 5 27 20 27 32 0 95 36 114 65 9 14 89 219 177 457 88 237 162 436
165 440 3 5 22 8 41 6 l35 -3 182 -451z m1241 32 l7 -43 69 35 c60 31 80 36
138 36 71 0 130 -24 158 -64 12 -17 18 -15 93 23 73 37 88 41 153 41 98 0 152
-28 187 -99 24 -47 25 -61 30 -265 l5 -215 25 -3 c34 -5 50 -20 50 -48 l0 -24
-149 0 -149 0 -6 25 c-9 35 -1 45 39 45 53 0 58 18 53 214 -5 194 -14 227 -73
252 -48 20 -122 17 -172 -6 l-43 -19 0 -201 c0 -120 4 -209 10 -221 6 -11 21
-19 35 -19 25 0 45 -25 45 -55 0 -14 -19 -15 -152 -13 l-153 3 0 30 c0 28 3
30 40 35 l40 5 3 180 c4 208 -4 247 -51 275 -40 25 -115 26 -179 3 l-48 -17 0
-211 c0 -223 2 -235 47 -235 22 0 43 -30 43 -61 0 -5 -65 -9 -154 -9 l-154 0
-4 30 c-5 32 0 35 62 42 l25 3 3 209 c3 238 -2 256 -62 256 -31 0 -46 13 -46
40 0 5 30 18 67 30 37 12 83 30 102 40 52 28 59 25 66 -24z m-403 9 c63 -22
88 -37 88 -52 0 -18 -48 -93 -60 -93 -5 0 -25 13 -43 30 -45 39 -113 70 -158
70 -146 1 -210 -259 -103 -422 55 -85 191 -109 291 -53 52 29 53 29 68 10 14
-19 12 -22 -28 -58 -59 -52 -131 -77 -222 -77 -63 0 -82 4 -136 33 -73 37
-130 104 -151 176 -20 70 -15 195 11 262 24 64 97 140 158 165 85 36 196 39
285 9z m1852 -13 c74 -40 126 -138 126 -237 l0 -25 -215 0 -215 0 0 -39 c0
-78 51 -173 113 -211 66 -40 179 -31 243 19 l28 22 20 -20 20 -21 -29 -31
c-17 -17 -52 -43 -80 -57 -45 -24 -61 -27 -150 -27 -114 0 -152 14 -217 82
-64 66 -83 122 -83 243 0 91 3 112 24 154 79 160 268 227 415 148z"/>
<path d="M2250 7457 c-87 -30 -152 -69 -214 -130 l-51 -50 115 -18 c63 -10
118 -18 122 -19 3 0 23 30 43 68 20 37 54 88 76 114 21 26 39 49 39 52 0 13
-69 4 -130 -17z"/>
<path d="M2515 7454 c-47 -24 -93 -73 -142 -151 -44 -72 -48 -93 -14 -93 9 0
73 -16 142 -35 68 -19 127 -35 132 -35 13 0 7 154 -8 215 -16 63 -43 108 -66
113 -8 1 -27 -5 -44 -14z"/>
<path d="M2725 7368 c3 -13 9 -78 12 -145 l6 -122 71 -27 c39 -15 88 -35 109
-46 43 -22 45 -18 21 63 -26 88 -75 170 -141 236 -66 66 -90 79 -78 41z"/>
<path d="M1922 7164 c-17 -33 -42 -126 -42 -159 0 -25 6 -35 28 -44 49 -23
194 -81 202 -81 5 0 11 19 15 42 7 42 45 176 59 209 6 13 -5 18 -66 27 -163
25 -185 26 -196 6z"/>
<path d="M2257 7043 c-26 -89 -50 -194 -45 -198 13 -11 339 -98 344 -92 12 13
79 276 71 283 -4 5 -209 62 -262 74 -27 6 -57 13 -66 16 -12 3 -21 -14 -42
-83z"/>
<path d="M2715 6958 c-7 -42 -45 -176 -59 -209 -6 -14 5 -18 71 -28 43 -7 103
-13 133 -14 l55 -2 22 65 c32 93 30 133 -4 149 -50 23 -195 81 -203 81 -5 0
-11 -19 -15 -42z"/>
<path d="M1884 6834 c21 -109 95 -236 179 -307 26 -22 49 -38 52 -35 3 2 1 29
-5 58 -5 29 -10 92 -10 140 l0 88 -72 28 c-40 15 -90 36 -112 46 l-39 20 7
-38z"/>
<path d="M2203 6638 c8 -157 44 -237 101 -222 41 10 112 79 161 159 46 74 50
95 16 95 -9 0 -73 16 -142 35 -68 19 -128 35 -133 35 -5 0 -6 -46 -3 -102z"/>
<path d="M2575 6573 c-20 -38 -54 -89 -76 -115 -21 -26 -39 -49 -39 -52 0 -11
57 -6 111 10 83 24 166 73 228 133 l56 54 -115 18 c-63 10 -118 18 -122 19 -3
0 -23 -30 -43 -67z"/>
<path d="M3698 7067 l-66 -182 140 -3 c78 -1 143 -1 145 2 4 4 -135 345 -146
358 -4 5 -37 -74 -73 -175z"/>
<path d="M6513 7006 c-34 -16 -77 -74 -87 -118 l-6 -28 140 0 c92 0 140 4 140
11 0 34 -25 100 -45 119 -30 28 -98 36 -142 16z"/>
<path d="M1679 4601 l-24 -19 0 -652 0 -652 24 -19 c22 -18 51 -19 882 -19
846 0 859 0 879 20 20 20 20 33 20 670 0 637 0 650 -20 670 -20 20 -33 20
-879 20 -831 0 -860 -1 -882 -19z m265 -1005 c49 -20 76 -61 76 -113 0 -75
-37 -122 -107 -137 -70 -16 -153 53 -153 127 0 100 92 162 184 123z m276 -99
c20 -48 41 -92 48 -99 21 -21 13 -28 -28 -28 -38 0 -54 14 -28 22 10 4 10 10
1 31 -10 21 -20 27 -43 27 -23 0 -33 -6 -43 -27 -9 -21 -9 -27 1 -31 25 -8 11
-22 -23 -22 -34 0 -48 16 -22 26 7 2 29 47 47 100 19 52 39 93 44 91 6 -2 27
-43 46 -90z m179 4 c24 -15 3 -32 -25 -19 -31 14 -46 1 -46 -38 0 -35 27 -56
61 -47 23 6 25 5 12 -10 -33 -41 -111 -5 -111 52 0 50 68 88 109 62z m71 -2
c0 -6 5 -7 13 -2 18 12 130 12 145 1 6 -6 12 -32 12 -59 0 -27 5 -49 10 -49 6
0 10 -4 10 -10 0 -5 -16 -10 -35 -10 -19 0 -35 5 -35 10 0 6 5 10 11 10 6 0 9
17 7 43 -3 36 -7 43 -27 45 -23 4 -23 2 -19 -52 5 -56 5 -56 -24 -56 -15 0
-28 5 -28 10 0 6 5 10 10 10 11 0 14 49 4 74 -3 9 -17 16 -30 16 -22 0 -24 -4
-24 -45 0 -25 5 -45 10 -45 6 0 10 -4 10 -10 0 -5 -13 -10 -29 -10 -17 0 -33
5 -36 10 -3 6 -1 10 4 10 6 0 11 20 11 45 0 25 -4 45 -10 45 -17 0 -11 18 8
23 29 8 32 7 32 -4z m302 -6 c10 -9 18 -24 18 -35 0 -14 -8 -18 -40 -18 -27 0
-40 -4 -40 -14 0 -23 26 -37 57 -30 25 7 27 6 14 -9 -18 -23 -67 -21 -91 3
-26 26 -25 68 2 97 25 27 54 29 80 6z"/>
<path d="M1838 3569 c-22 -12 -23 -29 -3 -29 8 0 19 9 25 20 12 22 4 25 -22 9z"/>
<path d="M1895 3560 c-21 -23 -20 -26 19 -36 25 -6 28 -5 23 10 -4 10 -7 24
-7 32 0 20 -14 17 -35 -6z"/>
<path d="M1960 3535 c0 -14 2 -25 4 -25 2 0 12 -3 21 -6 16 -6 16 -5 1 25 -20
38 -26 39 -26 6z"/>
<path d="M1790 3501 c0 -10 7 -22 16 -25 20 -8 19 -8 28 22 6 19 4 22 -18 22
-19 0 -26 -5 -26 -19z"/>
<path d="M1858 3486 c-4 -21 0 -27 25 -36 35 -12 33 -13 42 23 5 19 3 27 -6
27 -8 0 -24 3 -35 6 -17 4 -22 0 -26 -20z"/>
<path d="M1950 3455 c0 -18 5 -25 20 -25 25 0 38 29 19 41 -25 15 -39 10 -39
-16z"/>
<path d="M1790 3441 c0 -5 9 -19 21 -32 16 -19 19 -20 15 -6 -3 10 -6 25 -6
33 0 8 -7 14 -15 14 -8 0 -15 -4 -15 -9z"/>
<path d="M1850 3406 c0 -35 14 -39 39 -12 l22 23 -23 7 c-35 9 -38 8 -38 -18z"/>
<path d="M1920 3390 c-14 -26 1 -26 31 0 l24 19 -22 1 c-12 0 -27 -9 -33 -20z"/>
<path d="M2152 3501 c-10 -29 -10 -31 14 -31 27 0 29 5 10 39 l-13 24 -11 -32z"/>
<path d="M2717 3483 c-13 -12 -7 -23 13 -23 11 0 20 7 20 15 0 15 -21 21 -33
8z"/>
<path d="M4150 4318 c-1 -2 -2 -40 -3 -86 -2 -68 1 -82 13 -82 12 0 15 9 12
39 -4 42 10 60 33 41 18 -15 19 -52 3 -68 -9 -9 -6 -12 16 -12 22 0 26 3 18
13 -6 6 -12 28 -14 47 -3 31 -6 35 -30 35 -26 -1 -28 2 -28 37 0 21 -4 38 -10
38 -5 0 -10 -1 -10 -2z"/>
<path d="M4269 4316 c-2 -2 -3 -40 -1 -83 l3 -79 31 -2 c39 -3 58 13 58 48 0
33 -22 54 -50 47 -17 -4 -20 0 -20 34 0 34 -8 48 -21 35z m67 -101 c8 -34 -2
-57 -23 -53 -19 3 -29 38 -19 64 9 23 35 16 42 -11z"/>
<path d="M4749 4313 c-1 -5 0 -20 1 -34 1 -22 -4 -27 -29 -32 -35 -7 -50 -42
-32 -76 9 -15 20 -20 51 -18 30 1 39 5 35 15 -3 7 -5 45 -5 83 0 39 -4 69 -10
69 -5 0 -10 -3 -11 -7z m1 -107 c0 -19 -5 -38 -10 -41 -16 -10 -40 14 -40 40
0 26 8 35 32 35 14 0 18 -8 18 -34z"/>
<path d="M3778 4303 c16 -6 16 -125 0 -141 -18 -18 76 -16 111 3 32 16 41 33
41 75 0 45 -40 70 -109 69 -31 0 -50 -3 -43 -6z m112 -25 c41 -44 18 -108 -40
-111 l-35 -2 -3 68 -3 67 30 0 c18 0 38 -9 51 -22z"/>
<path d="M3960 4235 c-9 -10 -9 -15 -1 -15 6 0 11 5 11 10 0 6 7 10 15 10 26
0 17 -37 -11 -44 -30 -8 -30 -39 1 -45 16 -3 17 -1 7 11 -6 8 -9 18 -5 21 11
12 21 7 26 -13 3 -11 10 -20 15 -20 10 0 7 52 -4 88 -5 17 -39 15 -54 -3z"/>
<path d="M4054 4235 c-7 -18 12 -45 32 -45 8 0 14 -7 14 -15 0 -18 -21 -20
-39 -2 -11 10 -13 9 -9 -3 5 -18 46 -26 60 -12 15 15 0 49 -22 55 -11 3 -20
11 -20 17 0 8 9 10 26 6 17 -5 23 -3 19 4 -10 15 -55 12 -61 -5z"/>
<path d="M4396 4234 c-33 -33 -10 -84 38 -84 20 0 46 28 46 50 0 10 -7 26 -16
34 -8 9 -24 16 -34 16 -10 0 -26 -7 -34 -16z m54 -9 c7 -8 10 -25 6 -40 -9
-34 -43 -34 -52 0 -12 48 18 74 46 40z"/>
<path d="M4510 4241 c-8 -6 -11 -14 -6 -18 5 -4 11 -2 13 5 7 19 33 14 33 -7
0 -12 -9 -21 -26 -25 -30 -8 -30 -39 1 -43 11 -2 14 0 8 3 -18 8 -16 34 2 34
8 0 15 -9 15 -20 0 -11 6 -20 13 -20 10 0 11 12 7 48 -4 37 -9 48 -25 50 -11
1 -27 -2 -35 -7z"/>
<path d="M4609 4246 c0 -1 -1 -22 -2 -49 -2 -44 -1 -47 23 -46 14 0 19 3 13 6
-7 2 -13 20 -13 39 0 27 4 34 20 34 11 0 20 4 20 9 0 7 -56 13 -61 7z"/>
<path d="M5459 3801 l-24 -19 0 -652 0 -652 24 -19 c22 -18 51 -19 882 -19
846 0 859 0 879 20 20 20 20 33 20 670 0 637 0 650 -20 670 -20 20 -33 20
-879 20 -831 0 -860 -1 -882 -19z m265 -1005 c49 -20 76 -61 76 -113 0 -75
-37 -122 -107 -137 -70 -16 -153 53 -153 127 0 100 92 162 184 123z m276 -99
c20 -48 41 -92 48 -99 21 -21 13 -28 -28 -28 -38 0 -54 14 -28 22 10 4 10 10
1 31 -10 21 -20 27 -43 27 -23 0 -33 -6 -43 -27 -9 -21 -9 -27 1 -31 25 -8 11
-22 -23 -22 -34 0 -48 16 -22 26 7 2 29 47 47 100 19 52 39 93 44 91 6 -2 27
-43 46 -90z m179 4 c24 -15 3 -32 -25 -19 -31 14 -46 1 -46 -38 0 -35 27 -56
61 -47 23 6 25 5 12 -10 -33 -41 -111 -5 -111 52 0 50 68 88 109 62z m71 -2
c0 -6 5 -7 13 -2 18 12 130 12 145 1 6 -6 12 -32 12 -59 0 -27 5 -49 10 -49 6
0 10 -4 10 -10 0 -5 -16 -10 -35 -10 -19 0 -35 5 -35 10 0 6 5 10 11 10 6 0 9
17 7 43 -3 36 -7 43 -27 45 -23 4 -23 2 -19 -52 5 -56 5 -56 -24 -56 -15 0
-28 5 -28 10 0 6 5 10 10 10 11 0 14 49 4 74 -3 9 -17 16 -30 16 -22 0 -24 -4
-24 -45 0 -25 5 -45 10 -45 6 0 10 -4 10 -10 0 -5 -13 -10 -29 -10 -17 0 -33
5 -36 10 -3 6 -1 10 4 10 6 0 11 20 11 45 0 25 -4 45 -10 45 -17 0 -11 18 8
23 29 8 32 7 32 -4z m302 -6 c10 -9 18 -24 18 -35 0 -14 -8 -18 -40 -18 -27 0
-40 -4 -40 -14 0 -23 26 -37 57 -30 25 7 27 6 14 -9 -18 -23 -67 -21 -91 3
-26 26 -25 68 2 97 25 27 54 29 80 6z"/>
<path d="M5618 2769 c-22 -12 -23 -29 -3 -29 8 0 19 9 25 20 12 22 4 25 -22 9z"/>
<path d="M5675 2760 c-21 -23 -20 -26 19 -36 25 -6 28 -5 23 10 -4 10 -7 24
-7 32 0 20 -14 17 -35 -6z"/>
<path d="M5740 2735 c0 -14 2 -25 4 -25 2 0 12 -3 21 -6 16 -6 16 -5 1 25 -20
38 -26 39 -26 6z"/>
<path d="M5570 2701 c0 -10 7 -22 16 -25 20 -8 19 -8 28 22 6 19 4 22 -18 22
-19 0 -26 -5 -26 -19z"/>
<path d="M5638 2686 c-4 -21 0 -27 25 -36 35 -12 33 -13 42 23 5 19 3 27 -6
27 -8 0 -24 3 -35 6 -17 4 -22 0 -26 -20z"/>
<path d="M5730 2655 c0 -18 5 -25 20 -25 25 0 38 29 19 41 -25 15 -39 10 -39
-16z"/>
<path d="M5570 2641 c0 -5 9 -19 21 -32 16 -19 19 -20 15 -6 -3 10 -6 25 -6
33 0 8 -7 14 -15 14 -8 0 -15 -4 -15 -9z"/>
<path d="M5630 2606 c0 -35 14 -39 39 -12 l22 23 -23 7 c-35 9 -38 8 -38 -18z"/>
<path d="M5700 2590 c-14 -26 1 -26 31 0 l24 19 -22 1 c-12 0 -27 -9 -33 -20z"/>
<path d="M5932 2701 c-10 -29 -10 -31 14 -31 27 0 29 5 10 39 l-13 24 -11 -32z"/>
<path d="M6497 2683 c-13 -12 -7 -23 13 -23 11 0 20 7 20 15 0 15 -21 21 -33
8z"/>
<path d="M3963 3736 c-22 -19 -28 -32 -28 -65 0 -50 26 -79 78 -88 31 -5 40
-1 67 25 42 42 42 90 -1 126 -38 33 -79 33 -116 2z m90 3 c24 -11 47 -47 47
-74 0 -29 -46 -68 -79 -68 -70 0 -101 84 -47 130 30 26 44 28 79 12z"/>
<path d="M3999 3714 c-10 -12 -10 -20 -1 -35 15 -23 16 -42 2 -34 -17 11 -11
-7 7 -20 31 -23 58 25 31 54 -11 11 -10 14 0 18 10 4 10 8 1 19 -15 18 -24 18
-40 -2z"/>
<path d="M4235 3706 c-21 -15 -23 -65 -4 -77 20 -13 52 -7 57 11 5 13 3 13
-11 1 -25 -20 -49 -6 -45 26 3 31 35 44 49 21 6 -9 9 -9 9 -1 0 21 -35 34 -55
19z"/>
<path d="M4393 3665 c0 -27 2 -38 4 -22 2 15 2 37 0 50 -2 12 -4 0 -4 -28z"/>
<path d="M4420 3665 c0 -25 5 -45 10 -45 6 0 10 20 10 45 0 25 -4 45 -10 45
-5 0 -10 -20 -10 -45z"/>
<path d="M4608 3699 c-2 -6 -2 -26 0 -45 3 -24 9 -34 21 -33 10 0 11 2 4 6
-15 5 -18 50 -4 55 5 2 3 8 -4 15 -9 9 -15 9 -17 2z"/>
<path d="M4780 3700 c0 -5 -9 -10 -20 -10 -25 0 -41 -30 -29 -53 6 -9 21 -17
34 -17 23 0 25 4 25 45 0 25 -2 45 -5 45 -3 0 -5 -4 -5 -10z m-7 -32 c6 -19
-3 -38 -19 -38 -8 0 -14 10 -14 25 0 26 25 35 33 13z"/>
<path d="M4314 3676 c-11 -29 0 -51 26 -51 21 0 25 5 25 30 0 24 -5 31 -23 33
-13 2 -24 -3 -28 -12z m43 -12 c8 -21 -13 -42 -28 -27 -13 13 -5 43 11 43 6 0
13 -7 17 -16z"/>
<path d="M4456 3672 c-4 -11 -4 -27 0 -36 7 -17 39 -22 48 -7 4 5 -3 7 -14 4
-11 -3 -20 0 -20 6 0 6 9 11 21 11 14 0 19 5 17 18 -5 25 -45 28 -52 4z m44
-2 c0 -5 -7 -10 -15 -10 -8 0 -15 5 -15 10 0 6 7 10 15 10 8 0 15 -4 15 -10z"/>
<path d="M4534 3676 c-15 -39 22 -74 49 -47 9 9 5 11 -13 9 -19 -2 -25 2 -25
17 0 15 6 19 23 18 13 -2 21 1 17 7 -9 15 -45 12 -51 -4z"/>
<path d="M4654 3676 c-15 -39 23 -74 50 -46 8 9 6 11 -11 6 -12 -4 -24 -2 -28
4 -4 6 4 10 20 10 20 0 26 4 23 18 -4 22 -46 29 -54 8z m41 -6 c3 -5 -3 -10
-15 -10 -12 0 -18 5 -15 10 3 6 10 10 15 10 5 0 12 -4 15 -10z"/>
<path d="M13449 3541 c-23 -19 -24 -24 -24 -161 0 -137 1 -142 24 -161 22 -18
50 -19 777 -19 741 0 754 0 774 20 18 18 20 33 20 160 0 127 -2 142 -20 160
-20 20 -33 20 -774 20 -727 0 -755 -1 -777 -19z m1372 -151 c16 0 29 -4 29
-10 0 -5 -13 -10 -30 -10 -27 0 -30 -3 -30 -31 0 -17 -4 -28 -10 -24 -5 3 -10
17 -10 31 0 19 -5 24 -25 24 -14 0 -25 5 -25 10 0 6 11 10 25 10 20 0 25 5 25
23 0 37 15 43 18 8 3 -27 7 -31 33 -31z m-1171 25 c16 -20 5 -32 -14 -16 -20
17 -36 5 -36 -26 0 -23 3 -25 31 -19 22 4 29 2 27 -7 -3 -6 -19 -13 -36 -15
-26 -3 -34 1 -43 22 -23 49 38 101 71 61z m400 -35 c0 -27 -4 -50 -10 -50 -5
0 -10 23 -10 50 0 28 5 50 10 50 6 0 10 -22 10 -50z m255 40 c3 -5 -1 -10 -10
-10 -9 0 -13 5 -10 10 3 6 8 10 10 10 2 0 7 -4 10 -10z m-409 -15 c9 -8 11
-15 5 -15 -15 0 -14 -33 2 -49 10 -10 8 -12 -8 -9 -20 3 -36 49 -27 76 5 16
10 15 28 -3z m-115 -26 c8 -16 6 -19 -16 -19 -15 0 -24 -4 -20 -10 3 -5 12 -7
20 -3 8 3 15 0 15 -7 0 -6 -11 -10 -27 -8 -22 2 -29 9 -31 31 -4 35 -26 30
-30 -6 -5 -39 -22 -33 -22 7 l0 35 50 -1 c39 0 53 -4 61 -19z m77 -17 c3 -32
2 -33 -29 -30 -38 4 -51 27 -20 35 12 3 21 9 21 13 0 5 -10 6 -22 2 -15 -4
-19 -2 -14 7 5 7 20 11 34 9 22 -2 28 -9 30 -36z m120 16 c2 -13 -3 -18 -17
-18 -12 0 -21 -5 -21 -11 0 -6 9 -8 20 -4 11 4 20 2 20 -4 0 -6 -13 -11 -29
-11 -34 0 -51 31 -30 56 16 19 53 14 57 -8z m150 -15 c4 -38 -15 -45 -20 -8
-4 35 -22 36 -26 3 -5 -41 -22 -34 -22 8 0 34 1 35 33 32 28 -3 32 -7 35 -35z
m31 15 l8 -23 7 23 c4 12 12 22 17 22 11 0 11 0 -2 -39 -14 -41 -33 -39 -46 4
-12 39 2 50 16 13z m111 7 c18 -21 3 -55 -24 -55 -33 0 -50 23 -36 49 12 24
42 27 60 6z m27 -37 c-2 -13 -4 -5 -4 17 -1 22 1 32 4 23 2 -10 2 -28 0 -40z
m81 32 c4 -12 2 -13 -9 -2 -20 18 -29 15 -29 -13 0 -27 9 -32 28 -13 9 9 12 8
12 -5 0 -11 -8 -17 -25 -17 -30 0 -47 27 -33 53 11 21 49 19 56 -3z m72 16 c0
-2 3 -11 6 -20 5 -12 0 -16 -21 -16 -14 0 -24 -4 -21 -9 3 -5 16 -7 29 -4 17
4 19 3 11 -6 -29 -31 -76 4 -60 45 5 12 56 21 56 10z"/>
<path d="M13740 3380 c0 -5 5 -10 10 -10 6 0 10 5 10 10 0 6 -4 10 -10 10 -5
0 -10 -4 -10 -10z"/>
<path d="M13815 3350 c-3 -5 -2 -10 4 -10 5 0 13 5 16 10 3 6 2 10 -4 10 -5 0
-13 -4 -16 -10z"/>
<path d="M13940 3380 c0 -5 5 -10 10 -10 6 0 10 5 10 10 0 6 -4 10 -10 10 -5
0 -10 -4 -10 -10z"/>
<path d="M14227 3377 c-3 -8 -1 -20 4 -28 8 -12 10 -12 18 0 10 15 4 41 -9 41
-4 0 -10 -6 -13 -13z"/>
<path d="M14415 3380 c-3 -5 1 -10 10 -10 9 0 13 5 10 10 -3 6 -8 10 -10 10
-2 0 -7 -4 -10 -10z"/>
<path d="M7558 3463 c8 -3 12 -28 12 -73 0 -45 -4 -70 -12 -73 -7 -3 3 -5 22
-5 19 0 29 2 23 5 -9 3 -13 28 -13 73 0 45 4 70 13 73 6 3 -4 5 -23 5 -19 0
-29 -2 -22 -5z"/>
<path d="M7990 3450 c0 -5 7 -10 15 -10 8 0 15 5 15 10 0 6 -7 10 -15 10 -8 0
-15 -4 -15 -10z"/>
<path d="M7639 3406 c0 -1 -1 -22 -2 -49 -2 -36 1 -47 13 -47 12 0 15 9 12 40
-4 38 -3 40 23 40 26 0 27 -2 23 -40 -3 -31 0 -40 12 -40 13 0 15 9 10 48 l-5
47 -42 1 c-24 0 -43 0 -44 0z"/>
<path d="M7773 3360 c11 -27 24 -50 28 -50 4 0 15 19 25 43 10 23 20 45 22 50
2 4 -4 7 -13 7 -9 0 -13 -4 -10 -10 3 -5 0 -21 -8 -35 l-13 -26 -12 26 c-7 15
-10 31 -7 36 4 5 -3 9 -14 9 -19 0 -19 -1 2 -50z"/>
<path d="M7875 3390 c-27 -29 -10 -74 28 -78 37 -4 57 13 57 49 0 47 -53 65
-85 29z m53 -2 c17 -17 15 -58 -4 -65 -24 -9 -48 21 -40 51 7 28 25 33 44 14z"/>
<path d="M7985 3400 c-3 -5 -1 -10 4 -10 15 0 14 -53 -1 -68 -9 -9 -5 -12 18
-11 16 0 23 3 17 6 -8 3 -13 23 -13 49 0 41 -11 57 -25 34z"/>
<path d="M8054 3385 c-15 -23 -15 -27 0 -50 17 -26 59 -34 72 -14 4 7 0 9 -12
5 -34 -10 -59 23 -42 57 6 13 16 15 35 11 18 -5 24 -4 19 5 -13 20 -55 12 -72
-14z"/>
<path d="M8155 3390 c-27 -30 -10 -74 29 -78 16 -2 34 2 40 8 8 9 4 10 -16 5
-21 -5 -29 -2 -38 14 -10 19 -8 21 19 21 35 0 48 15 31 35 -17 21 -44 19 -65
-5z m50 0 c3 -5 -3 -10 -14 -10 -12 0 -21 5 -21 10 0 6 6 10 14 10 8 0 18 -4
21 -10z"/>
<path d="M8257 3403 c-15 -14 -6 -40 18 -51 14 -6 25 -16 25 -22 0 -14 -37
-12 -43 3 -3 7 -6 4 -6 -6 -1 -14 5 -18 27 -15 39 4 44 44 6 58 -20 8 -24 14
-16 22 8 8 15 8 27 -2 12 -10 15 -10 15 4 0 16 -40 23 -53 9z"/>
<path d="M9013 3313 c-18 -7 -19 -443 -1 -461 17 -17 2199 -17 2216 0 13 13
18 421 6 452 -6 14 -112 16 -1108 15 -605 0 -1107 -3 -1113 -6z m172 -237 c62
-26 74 -89 26 -137 -33 -33 -74 -38 -109 -13 -54 38 -48 119 11 148 39 19 31
19 72 2z m180 -53 c10 -27 24 -58 31 -70 14 -22 13 -23 -18 -22 -18 0 -27 3
-21 6 9 3 10 10 3 24 -13 23 -33 24 -51 3 -10 -13 -10 -17 2 -25 10 -6 6 -9
-15 -9 -22 0 -26 3 -18 13 6 7 20 38 32 70 12 31 25 57 29 57 5 0 16 -21 26
-47z m122 -19 c2 -7 -6 -10 -22 -7 -21 5 -25 2 -25 -20 0 -24 23 -42 41 -31 5
3 9 1 9 -4 0 -16 -30 -23 -50 -12 -27 14 -32 40 -15 67 17 25 55 29 62 7z
m152 2 c5 -6 11 -26 13 -43 4 -28 2 -33 -17 -33 -18 0 -20 5 -17 35 3 28 1 35
-13 35 -14 0 -16 -7 -13 -35 3 -27 0 -35 -12 -35 -12 0 -15 8 -12 35 3 28 1
35 -13 35 -14 0 -16 -7 -13 -35 3 -30 1 -35 -17 -35 -17 0 -20 6 -20 37 0 21
4 41 10 45 15 11 114 6 124 -6z m100 -5 c12 -22 5 -31 -26 -31 -12 0 -23 -4
-23 -10 0 -10 14 -14 38 -11 17 3 15 -16 -4 -23 -19 -7 -50 8 -58 30 -9 23 20
64 44 64 11 0 24 -8 29 -19z"/>
<path d="M9114 3055 c-16 -12 -17 -14 -3 -15 9 0 19 7 23 15 7 19 5 19 -20 0z"/>
<path d="M9157 3053 c-12 -11 -8 -23 8 -23 8 0 15 7 15 15 0 16 -12 20 -23 8z"/>
<path d="M9200 3031 c0 -5 5 -13 10 -16 6 -3 10 -2 10 4 0 5 -4 13 -10 16 -5
3 -10 2 -10 -4z"/>
<path d="M9086 3023 c-10 -10 -7 -21 8 -26 8 -3 17 0 20 8 5 14 -17 28 -28 18z"/>
<path d="M9130 3001 c0 -25 35 -30 44 -6 3 8 1 15 -3 15 -5 0 -16 3 -25 6 -12
4 -16 0 -16 -15z"/>
<path d="M9190 2986 c0 -9 7 -16 16 -16 9 0 14 5 12 12 -6 18 -28 21 -28 4z"/>
<path d="M9090 2965 c7 -9 15 -13 17 -11 7 7 -7 26 -19 26 -6 0 -6 -6 2 -15z"/>
<path d="M9127 2949 c4 -15 8 -17 19 -8 18 15 18 16 -5 22 -14 3 -17 0 -14
-14z"/>
<path d="M9170 2940 c0 -5 4 -10 9 -10 6 0 13 5 16 10 3 6 -1 10 -9 10 -9 0
-16 -4 -16 -10z"/>
<path d="M9327 3015 c-8 -20 -4 -29 11 -24 5 2 6 13 2 23 -6 19 -7 19 -13 1z"/>
<path d="M9698 2993 c7 -3 16 -2 19 1 4 3 -2 6 -13 5 -11 0 -14 -3 -6 -6z"/>
<path d="M4223 3126 c-28 -27 -29 -52 -3 -68 12 -8 20 -24 20 -40 0 -32 -14
-37 -29 -11 -5 10 -12 15 -15 12 -11 -11 4 -34 29 -45 21 -10 28 -8 50 12 31
29 31 39 0 66 -14 12 -25 32 -25 46 0 24 1 25 20 7 18 -17 20 -17 20 -1 0 9
-8 20 -17 23 -10 4 -20 10 -23 13 -3 4 -15 -3 -27 -14z m17 -33 c0 -20 -3 -24
-11 -16 -7 7 -9 19 -6 27 10 24 17 19 17 -11z m33 -89 c-9 -23 -23 -16 -23 12
0 22 2 24 14 14 8 -6 12 -18 9 -26z"/>
<path d="M4331 3116 c-9 -11 -7 -12 13 -9 48 9 46 -43 -3 -96 l-29 -31 49 0
c39 0 49 3 49 17 0 13 -3 14 -12 5 -12 -12 -48 -17 -48 -6 0 3 11 19 25 36 28
33 33 83 9 92 -25 9 -41 7 -53 -8z"/>
<path d="M4523 3108 c-49 -54 -56 -99 -18 -124 23 -15 27 -15 50 0 14 9 25 25
25 36 0 26 -29 53 -51 47 -26 -7 -24 2 8 35 15 15 22 28 17 28 -6 0 -20 -10
-31 -22z m27 -63 c19 -23 8 -50 -20 -50 -16 0 -26 6 -28 18 -4 18 14 47 28 47
4 0 13 -7 20 -15z"/>
<path d="M4612 3118 c-15 -15 -15 -41 -1 -55 8 -8 8 -13 0 -17 -21 -13 -12
-56 13 -67 46 -21 90 33 55 68 -8 8 -8 17 1 33 9 16 9 25 -1 36 -14 17 -51 18
-67 2z m55 -18 c2 -8 -1 -22 -7 -30 -8 -13 -11 -13 -26 2 -10 9 -14 24 -10 33
7 20 40 16 43 -5z m3 -90 c0 -15 -7 -20 -25 -20 -20 0 -25 5 -25 23 0 13 3 27
6 30 12 11 44 -13 44 -33z"/>
<path d="M4718 3104 c-15 -32 -1 -57 36 -64 25 -5 26 -6 12 -25 -20 -26 -20
-41 0 -24 21 17 44 63 44 88 0 51 -72 70 -92 25z m65 -5 c14 -22 2 -49 -22
-49 -22 0 -34 24 -25 52 7 22 32 20 47 -3z"/>
<path d="M4891 3117 c-8 -11 -5 -13 19 -9 27 4 30 2 30 -25 0 -17 -12 -43 -31
-66 l-30 -37 45 0 c37 0 46 3 46 17 0 13 -3 14 -12 5 -14 -14 -48 -16 -48 -3
0 5 7 14 16 22 29 24 46 67 34 89 -12 23 -52 27 -69 7z"/>
<path d="M5021 3095 c-39 -45 -42 -88 -7 -110 29 -19 61 -8 71 26 9 26 -22 62
-47 56 -24 -7 -23 2 4 30 12 13 19 25 16 28 -3 3 -19 -10 -37 -30z m39 -54
c14 -27 2 -53 -24 -49 -36 5 -31 67 6 68 4 0 12 -9 18 -19z"/>
<path d="M1820 2965 c-24 -25 -39 -45 -33 -45 7 0 13 -19 15 -42 l3 -43 70 0
70 0 3 43 c2 23 8 42 14 42 6 0 -9 20 -33 45 -24 25 -49 45 -54 45 -6 0 -31
-20 -55 -45z m89 1 c28 -29 32 -39 29 -77 -2 -31 -8 -45 -20 -47 -12 -2 -17 5
-20 25 -4 37 -39 39 -48 3 -3 -14 -14 -26 -23 -28 -14 -3 -17 5 -17 49 0 44 5
58 27 81 15 15 30 28 33 28 3 0 21 -15 39 -34z m-19 -101 c0 -16 -6 -25 -15
-25 -9 0 -15 9 -15 25 0 16 6 25 15 25 9 0 15 -9 15 -25z"/>
<path d="M4420 2991 c0 -5 6 -11 13 -14 9 -3 9 -7 -2 -20 -7 -10 -9 -17 -3
-17 11 0 22 23 22 46 0 8 -7 14 -15 14 -8 0 -15 -4 -15 -9z"/>
<path d="M4830 2990 c0 -5 5 -10 10 -10 6 0 10 5 10 10 0 6 -4 10 -10 10 -5 0
-10 -4 -10 -10z"/>
<path d="M12636 2954 c-13 -13 -16 -43 -16 -168 0 -105 4 -156 12 -164 8 -8
64 -12 185 -12 l173 0 0 180 0 180 -169 0 c-141 0 -172 -3 -185 -16z m184
-164 c0 -27 -4 -50 -10 -50 -5 0 -10 15 -10 34 0 19 -6 37 -12 39 -10 4 -9 8
2 16 26 18 30 13 30 -39z"/>
<path d="M2073 2915 c0 -27 2 -40 4 -27 3 15 11 22 28 22 17 0 25 -7 28 -22 2
-13 4 0 4 27 0 28 -2 40 -4 28 -3 -16 -11 -23 -28 -23 -17 0 -25 7 -28 23 -2
12 -4 0 -4 -28z"/>
<path d="M2170 2925 c-10 -12 -11 -21 -3 -33 13 -21 45 -22 50 -2 4 12 3 13
-5 1 -12 -17 -42 -7 -42 14 0 21 30 31 42 14 8 -12 9 -11 5 1 -5 21 -31 24
-47 5z"/>
<path d="M2241 2901 c1 -36 1 -36 8 -6 5 26 10 30 41 30 31 0 36 -4 41 -30 6
-27 7 -27 8 -5 1 38 -10 48 -56 47 -43 -1 -43 -1 -42 -36z"/>
<path d="M2367 2933 c-4 -3 -7 -17 -7 -30 0 -26 26 -41 42 -25 8 8 5 9 -11 5
-11 -3 -21 -1 -21 5 0 6 10 13 23 15 l22 4 -22 2 c-13 0 -23 6 -23 12 0 6 9 9
20 6 11 -3 18 -1 14 4 -6 11 -28 12 -37 2z"/>
<path d="M14839 2816 l23 -25 -53 -4 -54 -3 54 -2 54 -2 -23 -27 c-18 -21 -16
-20 10 4 l34 32 -24 26 c-13 14 -28 25 -33 25 -6 0 0 -11 12 -24z"/>
<path d="M13194 2810 c0 -13 4 -16 10 -10 7 7 7 13 0 20 -6 6 -10 3 -10 -10z"/>
<path d="M8046 2797 c3 -10 9 -15 12 -12 3 3 0 11 -7 18 -10 9 -11 8 -5 -6z"/>
<path d="M8743 2795 c-3 -9 -3 -18 -1 -21 3 -3 8 4 11 16 6 23 -1 27 -10 5z"/>
<path d="M14291 2790 c-1 -26 15 -50 33 -50 5 0 3 6 -6 13 -9 6 -19 23 -21 37
l-4 25 -2 -25z"/>
<path d="M13937 2794 c12 -3 24 -13 27 -22 3 -12 4 -11 3 3 -2 14 -10 21 -27
22 -21 1 -21 1 -3 -3z"/>
<path d="M14337 2779 c4 -13 8 -18 11 -10 2 7 -1 18 -6 23 -8 8 -9 4 -5 -13z"/>
<path d="M13172 2768 c-19 -19 -14 -28 16 -27 24 2 24 2 4 6 -19 4 -21 7 -11
19 14 17 8 19 -9 2z"/>
<path d="M8080 2761 c0 -6 4 -13 10 -16 6 -3 7 1 4 9 -7 18 -14 21 -14 7z"/>
<path d="M8507 2753 c3 -7 6 -13 8 -13 2 0 5 6 8 13 3 8 -1 14 -8 14 -7 0 -11
-6 -8 -14z"/>
<path d="M7948 2743 c7 -3 16 -2 19 1 4 3 -2 6 -13 5 -11 0 -14 -3 -6 -6z"/>
<path d="M9219 2663 c-20 -22 -24 -35 -20 -58 6 -28 10 -30 52 -33 47 -3 47
-3 51 33 3 28 -1 40 -22 60 -14 14 -28 25 -31 25 -3 0 -17 -12 -30 -27z m53 0
c10 -9 18 -30 18 -50 0 -36 -15 -45 -23 -13 -3 11 -10 20 -17 20 -7 0 -14 -9
-17 -20 -8 -31 -23 -24 -23 12 0 27 23 68 38 68 3 0 14 -7 24 -17z m-12 -68
c0 -8 -4 -15 -10 -15 -5 0 -10 7 -10 15 0 8 5 15 10 15 6 0 10 -7 10 -15z"/>
<path d="M9793 2675 c-15 -17 -17 -29 -4 -20 5 3 11 -9 13 -27 2 -25 8 -34 26
-36 12 -2 20 -8 17 -13 -10 -16 5 -10 27 10 16 15 19 26 13 48 -8 34 -23 53
-40 53 -20 0 -6 -37 16 -43 11 -3 19 -14 19 -26 0 -17 -6 -21 -36 -21 l-36 0
4 45 c3 48 0 53 -19 30z m72 -5 c3 -5 1 -10 -4 -10 -6 0 -11 5 -11 10 0 6 2
10 4 10 3 0 8 -4 11 -10z"/>
<path d="M10380 2686 c0 -2 7 -7 16 -10 8 -3 12 -2 9 4 -6 10 -25 14 -25 6z"/>
<path d="M10944 2677 c-3 -8 -4 -34 -2 -58 3 -40 6 -44 32 -47 27 -3 46 10 46
33 -1 6 -5 2 -11 -7 -5 -10 -21 -18 -34 -18 -23 0 -25 4 -25 50 0 46 2 50 25
50 13 0 29 -8 35 -17 10 -16 10 -16 8 2 -4 25 -65 35 -74 12z"/>
<path d="M10438 2663 c7 -3 16 -2 19 1 4 3 -2 6 -13 5 -11 0 -14 -3 -6 -6z"/>
<path d="M10390 2650 c-9 -6 -10 -10 -3 -10 6 0 15 5 18 10 8 12 4 12 -15 0z"/>
<path d="M11000 2639 l-35 -6 33 -2 c17 0 32 -6 32 -13 0 -9 3 -9 12 0 18 18
-2 29 -42 21z"/>
<path d="M10359 2613 c-12 -16 -12 -17 1 -7 8 6 22 14 30 17 13 5 12 6 -1 6
-9 1 -23 -7 -30 -16z"/>
<path d="M10418 2598 c2 -11 13 -18 26 -17 17 1 17 2 4 6 -10 2 -18 9 -18 15
0 6 9 8 20 5 11 -3 18 -1 15 4 -4 5 -16 8 -29 7 -17 -2 -22 -7 -18 -20z"/>
<path d="M10378 2573 c6 -2 18 -2 25 0 6 3 1 5 -13 5 -14 0 -19 -2 -12 -5z"/>
<path d="M1833 2461 c-3 -11 -13 -21 -24 -24 -16 -4 -19 -15 -19 -76 l0 -71
60 0 c47 0 60 3 60 15 0 9 11 20 25 25 19 7 25 17 25 40 0 38 -24 86 -49 100
-32 17 -72 12 -78 -9z m55 -24 c8 -16 21 -27 33 -27 15 0 19 -7 19 -36 l0 -35
-47 3 -48 3 -3 49 c-5 80 18 101 46 43z m32 8 c10 -12 10 -15 -4 -15 -9 0 -16
7 -16 15 0 8 2 15 4 15 2 0 9 -7 16 -15z m-88 -62 c3 -46 4 -48 36 -51 20 -2
32 -9 32 -18 0 -10 -13 -14 -50 -14 l-50 0 0 58 c0 32 3 62 7 65 15 16 22 4
25 -40z"/>
<path d="M2073 2380 c0 -30 2 -43 4 -27 2 15 2 39 0 55 -2 15 -4 2 -4 -28z"/>
<path d="M2100 2370 c0 -16 5 -30 10 -30 6 0 10 11 10 25 0 38 28 32 33 -7 4
-32 4 -32 5 5 2 35 0 37 -28 37 -27 0 -30 -3 -30 -30z"/>
<path d="M2185 2375 c9 -44 23 -53 35 -21 14 38 12 56 -4 28 l-12 -23 -12 23
c-12 22 -12 21 -7 -7z"/>
<path d="M2257 2394 c-13 -13 -7 -52 9 -58 22 -9 46 13 42 38 -3 21 -37 34
-51 20z m38 -29 c0 -28 -29 -25 -33 3 -3 19 0 23 15 20 10 -2 18 -12 18 -23z"/>
<path d="M2333 2365 c0 -22 2 -30 4 -17 2 12 2 30 0 40 -3 9 -5 -1 -4 -23z"/>
<path d="M2367 2393 c-4 -3 -7 -16 -7 -29 0 -24 28 -40 43 -25 6 6 2 9 -9 8
-13 -1 -20 6 -22 22 -3 21 -1 23 23 17 17 -4 24 -3 20 4 -7 11 -38 14 -48 3z"/>
<path d="M2434 2386 c-13 -35 26 -71 49 -46 9 10 9 12 -4 7 -9 -3 -22 -1 -30
4 -10 6 -6 9 14 9 22 0 28 4 25 18 -4 22 -46 29 -54 8z m46 -6 c0 -5 -7 -10
-15 -10 -8 0 -15 5 -15 10 0 6 7 10 15 10 8 0 15 -4 15 -10z"/>
<path d="M2510 2384 c0 -9 9 -18 20 -21 11 -3 17 -10 14 -15 -3 -5 -13 -7 -23
-3 -12 5 -13 3 -4 -6 14 -14 43 -5 43 15 0 7 -10 17 -22 21 l-23 7 25 8 25 8
-27 1 c-19 1 -28 -4 -28 -15z"/>
<path d="M3778 2248 c16 -16 16 -135 0 -141 -7 -3 3 -5 22 -5 19 0 29 2 23 5
-15 6 -18 63 -3 63 5 0 20 -16 32 -35 13 -19 31 -35 41 -35 15 0 14 4 -8 27
-26 28 -33 53 -15 53 6 0 10 14 10 30 0 34 -27 50 -83 50 -24 0 -28 -3 -19
-12z m80 -37 c-2 -18 -10 -27 -25 -29 -19 -3 -23 1 -23 26 0 35 5 41 31 35 15
-4 19 -13 17 -32z"/>
<path d="M4480 2245 c7 -9 10 -38 8 -80 -3 -64 -3 -65 22 -64 14 0 19 3 13 6
-15 5 -18 63 -4 63 5 0 21 -16 35 -35 15 -19 34 -35 42 -35 12 0 10 7 -10 30
-24 29 -24 31 -8 61 17 29 16 31 -7 50 -29 24 -111 28 -91 4z m84 -21 c9 -24
-5 -44 -30 -44 -20 0 -24 5 -24 28 0 16 3 31 6 34 9 10 42 -3 48 -18z"/>
<path d="M9080 2210 c-12 -22 2 -60 22 -60 7 0 6 5 -2 15 -7 8 -10 26 -8 40 6
30 2 32 -12 5z"/>
<path d="M4364 2200 c-6 -6 -8 -29 -5 -53 5 -36 10 -42 31 -45 22 -2 23 -1 8
8 -11 7 -18 23 -18 40 0 22 5 30 18 31 13 0 14 2 2 6 -8 3 -18 10 -21 14 -3 5
-10 4 -15 -1z"/>
<path d="M5600 2165 c-24 -25 -39 -45 -33 -45 7 0 13 -19 15 -42 l3 -43 70 0
70 0 3 43 c2 23 8 42 15 42 6 0 -9 20 -33 45 -24 25 -49 45 -55 45 -6 0 -31
-20 -55 -45z m118 -75 c-2 -32 -8 -46 -20 -48 -12 -2 -17 5 -20 25 -2 20 -9
29 -25 31 -17 3 -22 -2 -25 -25 -5 -47 -32 -35 -36 16 -3 38 1 48 29 77 l33
34 33 -32 c30 -29 34 -38 31 -78z m-53 -25 c0 -10 -6 -20 -12 -22 -8 -3 -13 5
-13 22 0 17 5 25 13 23 6 -3 12 -13 12 -23z"/>
<path d="M4243 2191 c-4 -3 -8 -25 -8 -49 0 -31 4 -42 15 -42 11 0 15 11 15
37 0 31 4 38 20 38 16 0 20 -7 20 -38 0 -27 4 -37 16 -37 12 0 14 8 10 42 -6
40 -8 43 -43 49 -20 3 -41 3 -45 0z"/>
<path d="M8758 2175 c-8 -19 -8 -28 2 -40 14 -16 46 -20 54 -6 3 4 -5 6 -18 4
-28 -6 -40 18 -21 43 11 15 15 16 29 5 9 -7 16 -9 16 -3 0 10 -23 22 -41 22
-5 0 -14 -11 -21 -25z"/>
<path d="M9170 2175 c0 -14 4 -25 9 -25 4 0 6 11 3 25 -2 14 -6 25 -8 25 -2 0
-4 -11 -4 -25z"/>
<path d="M9200 2175 c0 -14 5 -25 10 -25 6 0 10 11 10 25 0 14 -4 25 -10 25
-5 0 -10 -11 -10 -25z"/>
<path d="M9236 2192 c-3 -4 4 -16 15 -25 22 -19 25 -10 5 16 -8 10 -17 14 -20
9z"/>
<path d="M9280 2181 c0 -11 4 -23 10 -26 6 -4 7 1 3 10 -3 10 0 21 8 26 11 7
11 9 -3 9 -11 0 -18 -8 -18 -19z"/>
<path d="M9323 2184 c-3 -8 -2 -19 3 -24 5 -5 9 1 9 16 0 28 -3 30 -12 8z"/>
<path d="M9358 2174 c3 -17 7 -22 12 -13 9 13 2 39 -10 39 -4 0 -5 -12 -2 -26z"/>
<path d="M9390 2175 c0 -14 4 -25 9 -25 5 0 7 9 4 20 -4 14 0 20 10 20 9 0 18
-10 20 -22 l4 -23 2 23 c0 12 5 22 10 22 5 0 12 -10 14 -22 4 -20 4 -19 6 5 1
25 -2 27 -39 27 -36 0 -40 -2 -40 -25z"/>
<path d="M9497 2193 c-9 -9 -9 -43 1 -43 4 0 7 11 7 25 0 14 0 25 -1 25 0 0
-4 -3 -7 -7z"/>
<path d="M9551 2173 c1 -22 2 -23 6 -8 3 11 10 23 17 27 7 5 5 8 -6 8 -13 0
-18 -7 -17 -27z"/>
<path d="M9590 2192 c0 -4 9 -15 20 -25 11 -9 20 -13 20 -9 0 4 -9 15 -20 25
-11 9 -20 13 -20 9z"/>
<path d="M11980 2159 c0 -38 1 -40 28 -37 47 5 39 78 -9 78 -16 0 -19 -8 -19
-41z m45 1 c0 -16 -6 -26 -17 -28 -14 -3 -18 3 -18 28 0 25 4 31 18 28 11 -2
17 -12 17 -28z"/>
<path d="M12967 2193 c-13 -13 -7 -32 13 -38 11 -3 20 -11 20 -17 0 -6 -9 -8
-20 -5 -11 3 -20 1 -20 -4 0 -11 47 -12 54 -1 7 11 -6 27 -26 35 -25 9 -23 31
2 24 11 -3 18 -1 14 4 -6 11 -28 12 -37 2z"/>
<path d="M3934 2176 c-19 -50 23 -100 61 -72 15 10 13 12 -11 11 -19 0 -30 6
-32 18 -3 13 3 17 28 17 24 0 31 4 28 17 -2 9 -9 18 -16 21 -7 2 -10 -2 -6
-12 4 -12 0 -16 -15 -16 -23 0 -29 15 -8 23 7 3 5 6 -6 6 -10 1 -20 -5 -23
-13z"/>
<path d="M4042 2178 c-13 -13 -16 -47 -4 -65 8 -12 27 -17 57 -13 14 2 11 4
-10 9 -24 5 -31 12 -33 35 -2 16 2 32 10 37 7 5 8 9 3 9 -6 0 -16 -5 -23 -12z"/>
<path d="M4080 2186 c0 -2 7 -6 15 -10 8 -3 15 -1 15 4 0 6 -7 10 -15 10 -8 0
-15 -2 -15 -4z"/>
<path d="M4137 2183 c-4 -3 -7 -21 -7 -40 0 -26 5 -36 23 -42 12 -5 29 -6 37
-3 11 4 8 8 -10 12 -14 3 -26 14 -28 23 -3 13 4 17 28 17 24 0 31 4 28 17 -2
9 -9 18 -16 21 -7 2 -10 -2 -6 -12 4 -12 0 -16 -16 -16 -16 0 -20 4 -16 15 5
15 -5 20 -17 8z"/>
<path d="M4642 2178 c-13 -13 -16 -47 -4 -65 7 -12 25 -16 55 -14 28 2 19 17
-10 16 -18 0 -29 6 -31 18 -3 13 3 17 28 17 24 0 31 4 28 17 -2 9 -9 18 -16
21 -7 2 -10 -2 -6 -12 4 -12 0 -16 -15 -16 -23 0 -29 15 -8 23 6 3 7 6 2 6 -6
1 -16 -4 -23 -11z"/>
<path d="M4747 2144 c14 -25 29 -42 33 -37 15 15 39 83 30 83 -4 0 -11 -13
-15 -30 -4 -16 -11 -30 -16 -30 -5 0 -12 14 -15 30 -5 20 -12 30 -25 30 -16 0
-15 -4 8 -46z"/>
<path d="M4841 2168 c-17 -47 27 -91 64 -64 15 10 13 12 -11 11 -19 0 -30 6
-32 18 -3 13 3 17 28 17 24 0 31 4 28 17 -2 9 -9 18 -16 21 -7 2 -10 -2 -6
-12 4 -12 0 -16 -16 -16 -16 0 -20 4 -16 15 3 8 1 15 -5 15 -5 0 -13 -10 -18
-22z"/>
<path d="M4945 2145 c0 -34 4 -45 15 -45 12 0 15 9 12 41 -4 38 -3 40 19 37
20 -2 24 -9 24 -41 0 -27 4 -37 16 -37 12 0 14 8 10 43 -6 42 -6 42 -51 45
l-45 3 0 -46z"/>
<path d="M5070 2156 c0 -45 19 -63 61 -58 34 4 34 4 31 48 -5 54 -27 60 -27 7
0 -31 -4 -38 -20 -38 -16 0 -21 8 -23 38 -4 46 -22 49 -22 3z"/>
<path d="M5202 2178 c-19 -19 -14 -55 9 -71 20 -15 59 -12 59 3 0 5 -9 6 -21
3 -12 -4 -25 0 -30 8 -15 23 -10 29 22 29 23 0 30 4 27 17 -2 9 -9 18 -16 21
-7 2 -10 -2 -6 -12 4 -12 0 -16 -15 -16 -23 0 -29 15 -8 23 6 3 7 6 2 6 -6 1
-16 -4 -23 -11z"/>
<path d="M7810 2172 c0 -12 -5 -22 -11 -22 -6 0 -9 7 -5 15 3 8 1 15 -4 15 -9
0 -12 -12 -9 -37 0 -5 7 -7 16 -5 10 2 12 -1 7 -10 -6 -10 -5 -11 7 -1 9 7 15
22 14 33 -2 28 -15 38 -15 12z"/>
<path d="M11612 2159 c4 -42 23 -49 22 -7 0 18 -6 34 -13 36 -9 3 -11 -6 -9
-29z"/>
<path d="M12120 2161 c0 -17 5 -33 10 -36 6 -4 10 8 10 29 0 20 -4 36 -10 36
-5 0 -10 -13 -10 -29z"/>
<path d="M13030 2162 c0 -17 3 -33 8 -35 4 -3 7 8 7 23 0 16 -3 32 -7 36 -5 4
-8 -7 -8 -24z"/>
<path d="M13138 2185 c-6 -7 3 -65 11 -65 7 0 7 58 -1 65 -2 3 -7 3 -10 0z"/>
<path d="M11360 2169 c0 -5 4 -8 9 -4 5 3 12 -7 14 -22 4 -26 4 -26 6 5 1 22
-3 32 -14 32 -8 0 -15 -5 -15 -11z"/>
<path d="M11414 2166 c-9 -24 3 -46 26 -46 17 0 21 5 18 27 -3 31 -34 44 -44
19z m36 -16 c0 -11 -7 -20 -15 -20 -15 0 -21 21 -8 33 12 13 23 7 23 -13z"/>
<path d="M11481 2153 c-1 -29 2 -33 24 -33 22 0 25 4 24 33 -2 30 -2 30 -6 5
-2 -16 -10 -28 -18 -28 -8 0 -16 12 -18 28 -4 25 -4 25 -6 -5z"/>
<path d="M11579 2148 c4 -28 6 -29 9 -9 2 13 0 27 -5 32 -6 6 -7 -3 -4 -23z"/>
<path d="M12065 2171 c-3 -7 0 -8 9 -5 9 3 16 2 16 -4 0 -5 -9 -12 -21 -15
-25 -7 -16 -27 12 -27 16 0 20 6 17 27 -3 28 -22 41 -33 24z m22 -37 c-3 -3
-12 -4 -19 -1 -8 3 -5 6 6 6 11 1 17 -2 13 -5z"/>
<path d="M12164 2166 c-10 -25 3 -46 28 -45 22 1 22 1 -2 9 -25 8 -25 8 -2 9
17 1 22 6 20 18 -4 23 -36 29 -44 9z m36 -6 c0 -5 -7 -10 -16 -10 -8 0 -12 5
-9 10 3 6 10 10 16 10 5 0 9 -4 9 -10z"/>
<path d="M13075 2171 c-3 -7 0 -8 9 -5 9 3 16 1 16 -5 0 -6 -7 -11 -15 -11 -8
0 -15 -7 -15 -15 0 -9 10 -15 26 -15 22 0 25 4 22 27 -3 28 -30 43 -43 24z
m32 -37 c-3 -3 -12 -4 -19 -1 -8 3 -5 6 6 6 11 1 17 -2 13 -5z"/>
<path d="M13245 2170 c-9 -14 3 -30 23 -31 11 -1 8 -4 -8 -9 -22 -7 -22 -8 -4
-9 32 -2 37 11 12 32 -17 14 -19 17 -5 13 11 -3 16 -2 12 4 -8 13 -22 13 -30
0z"/>
<path d="M8841 2148 c-1 -22 4 -28 19 -28 15 0 20 6 19 28 -2 23 -2 24 -6 5
-2 -13 -8 -23 -13 -23 -5 0 -11 10 -13 23 -4 19 -4 18 -6 -5z"/>
<path d="M11540 2145 c0 -14 5 -25 10 -25 6 0 10 11 10 25 0 14 -4 25 -10 25
-5 0 -10 -11 -10 -25z"/>
<path d="M13170 2161 c0 -23 14 -41 31 -41 14 0 19 7 18 28 -2 23 -2 24 -6 5
-5 -28 -23 -30 -23 -3 0 11 -4 20 -10 20 -5 0 -10 -4 -10 -9z"/>
<path d="M5852 2115 c0 -27 3 -40 5 -27 3 15 11 22 28 22 17 0 25 -7 28 -22 2
-13 4 0 4 27 0 28 -2 40 -4 28 -3 -15 -12 -23 -24 -23 -11 0 -24 10 -29 23 -7
17 -9 11 -8 -28z"/>
<path d="M5945 2121 c-13 -42 27 -70 54 -37 9 11 10 20 1 35 -13 26 -47 27
-55 2z m45 -16 c0 -15 -6 -25 -14 -25 -16 0 -25 19 -18 38 8 22 32 13 32 -13z"/>
<path d="M6020 2105 c0 -19 5 -35 10 -35 6 0 10 14 10 30 0 17 5 30 10 30 6 0
10 -13 10 -30 0 -16 5 -30 10 -30 6 0 10 14 10 31 0 39 22 34 32 -7 6 -27 6
-27 5 6 -2 34 -3 35 -49 38 l-48 2 0 -35z"/>
<path d="M6141 2122 c-12 -23 4 -52 29 -52 11 0 20 4 20 9 0 5 -9 7 -20 4 -11
-3 -20 0 -20 6 0 6 12 11 26 11 20 0 25 4 20 16 -3 9 -6 18 -6 20 0 13 -41 1
-49 -14z m39 -2 c0 -5 -7 -10 -15 -10 -8 0 -15 5 -15 10 0 6 7 10 15 10 8 0
15 -4 15 -10z"/>
<path d="M1816 1921 c-19 -21 -12 -48 15 -56 42 -14 68 44 30 65 -25 13 -25
13 -45 -9z m49 -11 c9 -15 -14 -40 -31 -33 -22 8 -18 43 5 43 11 0 23 -5 26
-10z"/>
<path d="M1901 1892 c-12 -22 3 -42 30 -42 22 0 33 28 18 46 -16 19 -36 17
-48 -4z m39 -18 c0 -8 -7 -14 -15 -14 -15 0 -21 21 -9 33 10 9 24 -2 24 -19z"/>
<path d="M2081 1876 c-7 -8 -11 -27 -9 -43 2 -23 8 -29 36 -31 17 -2 32 1 32
5 0 5 -12 9 -27 8 -23 0 -29 5 -31 28 -4 32 20 46 45 26 14 -12 16 -12 11 1
-6 21 -42 24 -57 6z"/>
<path d="M2317 1873 c-6 -11 4 -73 12 -73 7 0 6 68 -2 76 -3 3 -7 2 -10 -3z"/>
<path d="M2208 1843 c-4 -35 -28 -43 -28 -9 0 14 -5 26 -11 26 -6 0 -9 -12 -7
-27 2 -22 9 -29 31 -31 25 -3 27 -1 27 32 0 42 -7 48 -12 9z"/>
<path d="M2244 1859 c-4 -7 3 -20 17 -29 l23 -18 -25 -5 c-23 -4 -23 -4 4 -6
32 -1 38 28 7 36 -11 3 -17 9 -15 14 3 4 13 5 22 2 11 -4 14 -3 9 5 -9 15 -33
15 -42 1z"/>
<path d="M2367 1856 c-22 -22 -10 -56 19 -56 28 0 42 25 27 48 -14 23 -29 25
-46 8z m39 -35 c-11 -18 -36 -13 -36 7 0 10 3 22 7 26 10 10 37 -20 29 -33z"/>
<path d="M2453 1863 c-7 -3 -12 -19 -12 -36 l1 -32 7 29 c3 17 11 30 16 30 6
0 13 -13 16 -30 l6 -29 4 28 c5 37 22 38 31 1 6 -28 6 -28 5 6 -2 31 -5 35
-32 36 -16 0 -36 -1 -42 -3z"/>
<path d="M2562 1861 c-21 -13 -11 -56 13 -57 15 -1 16 0 3 3 -27 7 -21 23 7
23 27 0 32 9 13 28 -14 14 -19 15 -36 3z m33 -11 c3 -5 -3 -10 -15 -10 -12 0
-18 5 -15 10 3 6 10 10 15 10 5 0 12 -4 15 -10z"/>
<path d="M2643 1863 c-7 -3 -12 -19 -12 -36 2 -28 2 -29 6 -7 3 14 10 28 16
32 14 9 6 17 -10 11z"/>
<path d="M2680 1855 c-10 -12 -7 -17 16 -26 l29 -12 -25 -7 -25 -8 28 -1 c32
-1 38 24 7 34 -28 9 -25 28 3 20 17 -5 19 -4 7 4 -20 14 -25 14 -40 -4z"/>
<path d="M1813 1840 c-28 -11 -42 -58 -22 -72 13 -9 136 -2 165 9 34 13 2 57
-38 52 -13 -2 -33 2 -45 9 -25 14 -30 14 -60 2z m71 -33 c13 -21 -5 -37 -44
-37 -40 0 -54 14 -40 39 14 27 67 26 84 -2z m65 -1 c10 -12 8 -16 -10 -21 -13
-5 -25 -2 -30 6 -17 28 19 41 40 15z"/>
<path d="M8837 1720 c-14 -11 -30 -20 -35 -20 -20 0 -35 -32 -35 -77 0 -39 5
-50 29 -70 16 -12 41 -23 57 -23 24 0 27 4 27 34 0 30 -3 33 -22 28 -17 -4
-20 -2 -15 11 4 10 0 20 -10 25 -10 6 -13 14 -7 23 4 8 8 23 9 34 0 11 10 24
23 30 12 5 22 13 22 17 0 13 -16 9 -43 -12z"/>
<path d="M14177 1651 c-66 -68 -80 -91 -54 -91 20 0 150 136 143 149 -12 19
-21 13 -89 -58z m83 49 c0 -5 -4 -10 -10 -10 -5 0 -10 5 -10 10 0 6 5 10 10
10 6 0 10 -4 10 -10z m-69 -73 c-27 -28 -54 -48 -58 -44 -9 10 88 108 100 100
5 -3 -14 -28 -42 -56z"/>
<path d="M14595 1702 c-18 -15 -20 -25 -15 -77 l5 -60 50 0 50 0 5 60 c5 52 3
62 -15 77 -11 10 -29 17 -40 17 -11 0 -29 -7 -40 -17z m48 1 c-7 -2 -19 -2
-25 0 -7 3 -2 5 12 5 14 0 19 -2 13 -5z m25 -22 c9 -5 12 -25 10 -57 l-3 -49
-40 0 -40 0 -3 49 c-3 52 6 66 43 66 11 0 26 -4 33 -9z"/>
<path d="M14613 1630 c0 -25 2 -35 4 -22 2 12 2 32 0 45 -2 12 -4 2 -4 -23z"/>
<path d="M14653 1630 c0 -25 2 -35 4 -22 2 12 2 32 0 45 -2 12 -4 2 -4 -23z"/>
<path d="M13618 1693 c7 -3 16 -2 19 1 4 3 -2 6 -13 5 -11 0 -14 -3 -6 -6z"/>
<path d="M13579 1673 c-13 -16 -12 -17 4 -4 16 13 21 21 13 21 -2 0 -10 -8
-17 -17z"/>
<path d="M13650 1686 c0 -2 8 -10 18 -17 15 -13 16 -12 3 4 -13 16 -21 21 -21
13z"/>
<path d="M5613 1661 c-3 -11 -14 -21 -24 -24 -18 -5 -20 -13 -17 -74 l3 -68
58 -3 c52 -3 57 -1 57 18 0 13 7 20 20 20 17 0 20 7 20 44 0 58 -7 74 -41 91
-39 21 -70 19 -76 -4z m57 -21 c4 -16 14 -26 28 -28 18 -3 22 -10 22 -38 l0
-34 -50 0 -50 0 0 66 c0 62 1 65 22 62 14 -2 24 -12 28 -28z m35 0 c18 -19 17
-20 -3 -20 -15 0 -22 6 -22 20 0 11 2 20 3 20 2 0 12 -9 22 -20z m-93 -57 c3
-46 4 -48 36 -51 20 -2 32 -9 32 -18 0 -10 -13 -14 -50 -14 l-50 0 0 65 c0 50
3 65 14 65 11 0 16 -14 18 -47z"/>
<path d="M7777 1643 c-5 -47 -2 -53 28 -53 23 0 42 25 26 34 -5 3 -6 17 -3 31
4 21 1 25 -21 25 -21 0 -25 -5 -30 -37z m43 12 c0 -8 -7 -15 -15 -15 -8 0 -15
7 -15 15 0 8 7 15 15 15 8 0 15 -7 15 -15z m5 -34 c3 -5 1 -13 -5 -16 -15 -9
-43 3 -35 15 8 13 32 13 40 1z"/>
<path d="M7860 1660 c0 -13 7 -20 20 -20 14 0 20 -7 20 -21 0 -16 -5 -20 -20
-16 -11 3 -20 1 -20 -5 0 -5 10 -8 23 -6 30 4 37 47 8 55 -28 7 -27 21 2 26
19 4 18 4 -5 6 -22 1 -28 -4 -28 -19z"/>
<path d="M7937 1643 c-7 -42 2 -57 29 -51 15 2 19 12 19 43 0 33 -4 41 -21 43
-18 3 -22 -4 -27 -35z m41 15 c-6 -18 -28 -21 -28 -4 0 9 7 16 16 16 9 0 14
-5 12 -12z m2 -43 c0 -8 -6 -15 -14 -15 -17 0 -28 14 -19 24 12 12 33 6 33 -9z"/>
<path d="M8030 1648 c-19 -31 -19 -33 -2 -37 9 -2 22 -7 29 -12 15 -13 20 4
15 47 -5 43 -17 43 -42 2z m30 -8 c0 -11 -7 -20 -15 -20 -17 0 -18 2 -9 24 9
23 24 20 24 -4z"/>
<path d="M8100 1671 c0 -5 9 -7 20 -4 13 4 20 0 20 -9 0 -8 -9 -23 -20 -33
-27 -25 -25 -35 8 -34 21 0 23 2 9 7 -16 7 -16 9 -3 27 24 31 20 55 -9 55 -14
0 -25 -4 -25 -9z"/>
<path d="M8181 1638 c-1 -44 1 -48 23 -48 16 0 27 7 31 20 7 23 -10 50 -30 50
-8 0 -16 6 -18 13 -3 6 -6 -9 -6 -35z m44 -13 c0 -11 -8 -21 -17 -23 -14 -3
-18 3 -18 23 0 20 4 26 18 23 9 -2 17 -12 17 -23z"/>
<path d="M8334 1667 c-3 -9 -4 -28 -2 -44 2 -22 8 -28 28 -28 23 0 25 4 25 40
0 34 -3 40 -23 43 -13 2 -24 -3 -28 -11z m41 -32 c0 -20 -6 -31 -17 -33 -15
-3 -18 4 -18 33 0 29 3 36 18 33 11 -2 17 -13 17 -33z"/>
<path d="M11386 1664 c-9 -22 -8 -22 17 -26 30 -4 29 -33 -1 -32 -14 0 -19 -3
-13 -9 17 -17 46 -3 46 23 0 17 -7 26 -25 31 l-25 6 25 11 c23 10 23 11 4 11
-12 1 -25 -6 -28 -15z"/>
<path d="M11478 1673 c26 -5 26 -6 6 -44 -8 -17 -14 -33 -12 -35 2 -2 14 17
26 41 l22 45 -33 -1 c-23 -1 -26 -3 -9 -6z"/>
<path d="M11554 1666 c-8 -20 15 -49 33 -42 7 3 13 -1 13 -10 0 -13 -6 -15
-27 -9 -21 5 -25 4 -17 -5 7 -7 20 -10 30 -8 15 2 19 12 19 43 0 34 -3 40 -23
43 -13 2 -25 -3 -28 -12z m46 -10 c0 -8 -5 -18 -11 -22 -14 -8 -33 11 -25 25
10 16 36 13 36 -3z"/>
<path d="M11640 1661 c0 -10 9 -21 20 -24 11 -3 20 -13 20 -22 0 -12 -6 -16
-20 -12 -11 3 -20 1 -20 -5 0 -5 10 -8 23 -6 30 4 37 47 8 55 -28 7 -27 21 2
26 19 4 18 4 -5 6 -21 1 -28 -4 -28 -18z"/>
<path d="M11980 1635 c0 -40 2 -45 23 -45 30 0 47 18 47 51 0 27 -15 39 -51
39 -16 0 -19 -7 -19 -45z m55 0 c0 -23 -5 -31 -22 -33 -20 -3 -23 1 -23 33 0
32 3 36 23 33 17 -2 22 -10 22 -33z"/>
<path d="M12260 1654 c-12 -31 3 -64 29 -64 11 0 22 7 25 16 7 19 -10 44 -30
44 -8 0 -14 5 -14 11 0 6 9 9 20 6 11 -3 20 -1 20 4 0 21 -41 8 -50 -17z m45
-34 c0 -8 -8 -16 -17 -18 -13 -2 -18 3 -18 18 0 15 5 20 18 18 9 -2 17 -10 17
-18z"/>
<path d="M12410 1671 c0 -5 9 -7 20 -4 13 4 20 0 20 -9 0 -8 -9 -23 -20 -33
-27 -25 -25 -35 8 -34 16 1 20 3 10 6 -22 6 -22 12 -2 34 9 10 14 25 11 34 -7
16 -47 21 -47 6z"/>
<path d="M12484 1653 c-4 -14 -2 -33 3 -42 13 -20 45 -21 50 -1 4 12 3 13 -5
1 -16 -23 -44 -5 -40 26 4 34 33 43 43 13 4 -12 9 -19 12 -17 2 3 0 15 -7 26
-16 30 -48 27 -56 -6z"/>
<path d="M12570 1671 c0 -5 9 -7 20 -4 13 4 20 0 20 -9 0 -8 -9 -23 -20 -33
-27 -25 -25 -35 8 -34 24 2 25 2 4 6 l-24 5 22 23 c26 27 21 55 -10 55 -11 0
-20 -4 -20 -9z"/>
<path d="M12645 1670 c-4 -7 2 -9 19 -4 35 8 34 -11 -1 -48 l-27 -28 35 1 c25
1 28 3 11 6 l-24 5 22 23 c13 14 20 31 17 39 -7 18 -42 21 -52 6z"/>
<path d="M13072 1645 c0 -22 2 -34 5 -27 2 6 11 12 18 12 8 0 16 4 19 9 4 5
-3 7 -13 4 -14 -4 -21 1 -24 19 -2 13 -5 6 -5 -17z"/>
<path d="M13622 1660 c0 -14 2 -19 5 -12 2 6 2 18 0 25 -3 6 -5 1 -5 -13z"/>
<path d="M8260 1652 c0 -6 9 -8 20 -5 11 3 20 1 20 -5 0 -6 -10 -12 -22 -14
-33 -4 -29 -32 5 -36 27 -3 28 -1 25 30 -2 25 -8 34 -25 36 -13 2 -23 -1 -23
-6z m35 -42 c-3 -5 -13 -10 -21 -10 -8 0 -12 5 -9 10 3 6 13 10 21 10 8 0 12
-4 9 -10z"/>
<path d="M12074 1646 c-11 -28 1 -51 26 -53 22 -1 22 -1 3 4 -31 6 -29 23 3
23 20 0 25 4 20 16 -3 9 -6 18 -6 20 0 11 -41 2 -46 -10z m41 -6 c3 -5 -3 -10
-15 -10 -12 0 -18 5 -15 10 3 6 10 10 15 10 5 0 12 -4 15 -10z"/>
<path d="M12149 1644 c-9 -11 -10 -20 -2 -32 11 -19 53 -29 53 -14 0 6 -8 8
-19 5 -22 -6 -34 9 -25 32 4 10 14 15 25 12 11 -3 17 -1 13 4 -8 14 -30 11
-45 -7z"/>
<path d="M13273 1645 c-3 -9 -3 -18 -1 -21 3 -3 8 4 11 16 6 23 -1 27 -10 5z"/>
<path d="M13372 1635 c0 -16 2 -22 5 -12 2 9 2 23 0 30 -3 6 -5 -1 -5 -18z"/>
<path d="M13408 1633 c5 -21 7 -23 10 -9 2 10 0 22 -6 28 -6 6 -7 0 -4 -19z"/>
<path d="M13141 1625 c0 -11 3 -14 6 -7 2 6 13 12 24 12 10 0 19 3 19 8 0 4
-11 7 -25 7 -19 0 -25 -5 -24 -20z"/>
<path d="M5853 1580 c0 -25 2 -35 4 -22 2 12 2 32 0 45 -2 12 -4 2 -4 -23z"/>
<path d="M13570 1616 c0 -2 8 -10 18 -17 15 -13 16 -12 3 4 -13 16 -21 21 -21
13z"/>
<path d="M5880 1568 c0 -36 4 -35 14 5 4 16 2 27 -4 27 -5 0 -10 -14 -10 -32z"/>
<path d="M5929 1568 c4 -28 6 -29 9 -9 2 13 0 27 -5 32 -6 6 -7 -3 -4 -23z"/>
<path d="M5996 1575 c-6 -22 -9 -26 -17 -14 -5 9 -9 9 -9 2 0 -6 4 -14 9 -18
12 -7 34 31 28 48 -2 7 -7 -1 -11 -18z"/>
<path d="M6037 1593 c-9 -9 -9 -53 1 -53 4 0 7 14 7 30 0 17 0 30 -1 30 0 0
-4 -3 -7 -7z"/>
<path d="M6075 1570 c0 -15 3 -26 8 -23 4 2 7 13 7 23 0 10 -3 21 -7 23 -5 3
-8 -8 -8 -23z"/>
<path d="M6112 1570 c0 -19 2 -27 5 -17 2 9 2 25 0 35 -3 9 -5 1 -5 -18z"/>
<path d="M6147 1593 c-9 -9 -9 -41 1 -46 4 -3 7 8 7 24 0 16 0 29 -1 29 0 0
-4 -3 -7 -7z"/>
<path d="M6256 1587 c3 -10 9 -15 12 -12 3 3 0 11 -7 18 -10 9 -11 8 -5 -6z"/>
<path d="M6294 1588 c-4 -6 -2 -14 4 -16 7 -2 19 -10 27 -19 8 -8 15 -10 15
-4 0 6 -9 15 -20 21 -11 6 -18 15 -15 21 4 5 4 9 1 9 -3 0 -8 -5 -12 -12z"/>
<path d="M12335 1589 c-4 -6 -5 -12 -2 -15 2 -3 7 2 10 11 7 17 1 20 -8 4z"/>
<path d="M13618 1583 c7 -3 16 -2 19 1 4 3 -2 6 -13 5 -11 0 -14 -3 -6 -6z"/>
<path d="M4171 1547 c-1 -32 1 -36 13 -25 8 7 10 15 6 18 -4 3 -10 14 -13 25
-3 12 -5 4 -6 -18z"/>
<path d="M6210 1566 c0 -8 4 -17 9 -20 5 -4 7 3 4 14 -6 23 -13 26 -13 6z"/>
<path d="M9290 1403 c25 -10 29 -24 16 -55 -16 -37 -31 -37 -32 -1 -3 56 -3
54 -24 43 -13 -7 -20 -21 -20 -41 0 -49 16 -69 55 -69 55 0 103 80 55 93 -11
3 -20 12 -20 21 0 10 -8 16 -22 15 -16 0 -18 -2 -8 -6z"/>
<path d="M9430 1369 c0 -5 5 -7 10 -4 6 3 10 8 10 11 0 2 -4 4 -10 4 -5 0 -10
-5 -10 -11z"/>
<path d="M9520 1357 c0 -13 -6 -29 -12 -36 -11 -10 -10 -11 5 -6 11 5 17 18
17 36 0 16 -2 29 -5 29 -3 0 -5 -10 -5 -23z"/>
<path d="M9484 1355 c-3 -8 -4 -20 -1 -27 3 -7 6 -3 6 9 1 12 7 24 14 26 9 4
9 6 -1 6 -7 1 -15 -6 -18 -14z"/>
<path d="M9556 1363 c7 -4 14 -17 17 -28 5 -16 5 -15 4 4 -1 14 -9 26 -17 28
-10 3 -11 2 -4 -4z"/>
<path d="M9684 1355 c-3 -8 -4 -20 -1 -27 3 -7 6 -3 6 10 1 25 10 28 31 10 12
-11 12 -10 1 5 -16 21 -30 22 -37 2z"/>
<path d="M9794 1356 c-3 -8 -4 -21 -1 -28 3 -7 6 -3 6 10 1 23 15 30 24 12 3
-6 4 -5 3 2 -4 18 -25 21 -32 4z"/>
<path d="M9890 1363 c5 -2 8 -8 6 -12 -3 -4 0 -13 5 -21 8 -12 9 -9 7 9 -2 14
-9 26 -16 27 -7 1 -8 0 -2 -3z"/>
<path d="M9984 1356 c-3 -8 -4 -21 -1 -28 3 -7 6 -3 6 10 1 23 15 30 24 12 3
-6 4 -5 3 2 -4 18 -25 21 -32 4z"/>
<path d="M9450 1346 c0 -8 4 -17 9 -20 5 -4 7 3 4 14 -6 23 -13 26 -13 6z"/>
<path d="M9756 1333 c-6 -14 -5 -15 5 -6 7 7 10 15 7 18 -3 3 -9 -2 -12 -12z"/>
<path d="M9920 1343 c0 -6 8 -17 18 -24 16 -13 16 -13 2 6 -8 11 -16 22 -17
24 -2 2 -3 0 -3 -6z"/>
<path d="M9540 1331 c0 -6 4 -13 10 -16 6 -3 7 1 4 9 -7 18 -14 21 -14 7z"/>
<path d="M9870 1331 c0 -6 4 -13 10 -16 6 -3 7 1 4 9 -7 18 -14 21 -14 7z"/>
<path d="M8840 1130 c-14 -11 -30 -20 -36 -20 -22 0 -36 -29 -36 -75 0 -60 30
-95 79 -95 31 0 33 2 33 34 0 29 -3 33 -19 29 -10 -3 -22 0 -25 6 -4 6 -2 11
5 11 7 0 5 6 -6 13 -12 10 -15 19 -9 28 4 8 8 23 9 34 0 13 8 21 23 23 12 2
22 10 22 18 0 19 -10 17 -40 -6z"/>
<path d="M5596 1121 c-19 -21 -12 -48 15 -56 42 -14 68 44 30 65 -25 13 -25
13 -45 -9z m49 -11 c9 -15 -14 -40 -31 -33 -22 8 -18 43 5 43 11 0 23 -5 26
-10z"/>
<path d="M4025 1119 c-4 -6 -5 -12 -2 -15 2 -3 7 2 10 11 7 17 1 20 -8 4z"/>
<path d="M4127 1106 c4 -20 0 -25 -18 -28 -23 -3 -23 -4 4 -9 25 -6 27 -4 27
27 0 19 -4 34 -9 34 -4 0 -6 -11 -4 -24z"/>
<path d="M14177 1061 c-68 -70 -80 -91 -51 -91 22 0 145 121 142 139 -6 30
-26 20 -91 -48z m83 49 c0 -5 -5 -10 -11 -10 -5 0 -7 5 -4 10 3 6 8 10 11 10
2 0 4 -4 4 -10z m-70 -75 c-29 -30 -56 -52 -59 -50 -6 7 90 105 103 105 6 0
-14 -25 -44 -55z"/>
<path d="M14604 1115 c-4 -8 -12 -15 -19 -15 -9 0 -11 -15 -8 -52 6 -77 7 -78
58 -78 51 0 52 1 58 78 3 37 1 52 -8 52 -7 0 -15 7 -19 15 -3 8 -17 15 -31 15
-14 0 -28 -7 -31 -15z m46 -5 c0 -5 -9 -10 -21 -10 -11 0 -17 5 -14 10 3 6 13
10 21 10 8 0 14 -4 14 -10z m28 -72 l-3 -53 -42 -3 -43 -3 0 55 0 56 46 0 45
0 -3 -52z"/>
<path d="M14613 1035 c0 -22 2 -30 4 -17 2 12 2 30 0 40 -3 9 -5 -1 -4 -23z"/>
<path d="M14653 1035 c0 -22 2 -30 4 -17 2 12 2 30 0 40 -3 9 -5 -1 -4 -23z"/>
<path d="M5681 1092 c-12 -22 3 -42 30 -42 22 0 33 28 18 46 -16 19 -36 17
-48 -4z m39 -18 c0 -8 -7 -14 -15 -14 -15 0 -21 21 -9 33 10 9 24 -2 24 -19z"/>
<path d="M4170 1086 c0 -2 7 -7 16 -10 8 -3 12 -2 9 4 -6 10 -25 14 -25 6z"/>
<path d="M5861 1076 c-7 -8 -11 -27 -9 -43 2 -23 8 -29 36 -31 17 -2 32 1 32
5 0 5 -12 9 -27 8 -23 0 -29 5 -31 28 -4 32 20 46 45 26 14 -12 16 -12 11 1
-6 21 -42 24 -57 6z"/>
<path d="M7779 1061 c-1 -17 -2 -36 -3 -43 -1 -6 6 -13 14 -15 13 -4 13 -3 0
6 -20 14 1 36 25 27 14 -5 15 -9 5 -21 -7 -9 -8 -15 -2 -15 12 0 23 26 14 35
-3 3 -7 16 -7 28 0 15 -7 23 -22 25 -19 3 -23 -2 -24 -27z m41 4 c0 -8 -7 -15
-15 -15 -8 0 -15 7 -15 15 0 8 7 15 15 15 8 0 15 -7 15 -15z"/>
<path d="M7860 1066 c0 -17 5 -23 18 -22 12 1 17 -6 16 -21 0 -13 3 -23 8 -23
4 0 8 12 8 26 0 17 -6 28 -20 31 -27 7 -25 21 3 26 19 4 18 4 -5 6 -23 1 -28
-3 -28 -23z"/>
<path d="M7939 1061 c-1 -17 -2 -36 -3 -43 -1 -6 6 -13 14 -15 12 -4 13 -3 1
5 -16 12 -6 32 16 32 10 0 14 -6 10 -20 -3 -11 -1 -20 4 -20 5 0 8 19 6 43 -2
35 -6 43 -24 45 -19 3 -23 -2 -24 -27z m41 4 c0 -8 -7 -15 -15 -15 -8 0 -15 7
-15 15 0 8 7 15 15 15 8 0 15 -7 15 -15z"/>
<path d="M8031 1057 c-19 -29 -19 -32 -3 -36 9 -2 23 -8 30 -13 9 -8 12 -1 12
30 0 53 -13 60 -39 19z m29 -7 c0 -11 -7 -20 -15 -20 -18 0 -19 12 -3 28 16
16 18 15 18 -8z"/>
<path d="M8106 1081 c-4 -5 3 -7 14 -4 26 7 26 -11 -1 -48 l-20 -29 28 1 c16
1 21 3 11 6 -16 4 -16 6 -2 29 9 13 14 31 10 39 -6 16 -32 20 -40 6z"/>
<path d="M8181 1048 c-1 -27 3 -48 8 -48 4 0 6 11 4 24 -6 27 13 44 30 27 9
-9 8 -16 -1 -31 -8 -13 -8 -20 -2 -20 16 0 24 31 13 49 -6 9 -16 16 -24 16 -8
0 -17 7 -21 15 -4 8 -7 -6 -7 -32z"/>
<path d="M8337 1083 c-10 -9 -9 -71 1 -77 4 -2 6 14 4 36 -4 35 -2 39 14 36
23 -4 32 -56 12 -70 -10 -8 -10 -9 2 -5 31 8 23 87 -9 87 -10 0 -21 -3 -24 -7z"/>
<path d="M11389 1080 c-5 -29 -2 -35 16 -35 11 0 21 -8 23 -19 3 -15 -1 -18
-23 -14 -17 4 -23 2 -17 -4 6 -6 18 -8 28 -6 27 5 23 40 -6 55 -18 9 -20 13
-10 17 8 2 22 7 30 9 8 3 3 6 -12 6 -16 1 -29 -3 -29 -9z"/>
<path d="M11478 1083 c26 -5 26 -9 7 -43 -8 -14 -14 -29 -14 -35 0 -14 38 57
39 73 0 7 -11 11 -27 11 -24 -2 -25 -2 -5 -6z"/>
<path d="M11554 1076 c-9 -25 3 -46 27 -46 16 0 20 -4 14 -17 -4 -13 -3 -15 5
-7 6 6 10 27 8 45 -2 26 -8 35 -26 37 -13 2 -25 -3 -28 -12z m46 -16 c0 -21
-24 -28 -35 -10 -8 14 3 30 21 30 8 0 14 -9 14 -20z"/>
<path d="M11640 1066 c0 -17 5 -23 18 -22 11 1 17 -6 16 -21 0 -12 3 -20 8
-17 16 10 8 43 -12 49 -27 8 -25 23 3 28 19 4 18 4 -5 6 -23 1 -28 -3 -28 -23z"/>
<path d="M11980 1044 c0 -45 0 -45 33 -42 27 2 33 8 35 31 4 35 -13 57 -44 57
-22 0 -24 -4 -24 -46z m55 1 c0 -23 -5 -31 -22 -33 -20 -3 -23 1 -23 33 0 32
3 36 23 33 17 -2 22 -10 22 -33z"/>
<path d="M12260 1064 c-7 -17 -7 -32 0 -45 14 -24 20 -24 13 0 -6 22 14 38 29
23 8 -8 7 -16 -2 -27 -9 -11 -9 -15 -1 -15 18 0 25 29 11 46 -7 8 -19 13 -27
10 -7 -3 -13 1 -13 10 0 11 6 15 20 11 11 -3 20 -1 20 4 0 21 -41 8 -50 -17z"/>
<path d="M12416 1081 c-4 -5 3 -7 14 -4 21 6 29 -20 10 -32 -5 -3 -15 -15 -20
-26 -9 -17 -7 -19 17 -18 17 1 21 3 11 6 -16 4 -16 6 -2 29 9 13 14 31 10 39
-6 16 -32 20 -40 6z"/>
<path d="M12492 1078 c-20 -20 -12 -78 10 -78 6 0 5 6 -2 15 -15 18 -5 65 15
65 19 0 28 -35 15 -60 -6 -11 -7 -20 -1 -20 15 0 22 49 11 70 -12 23 -30 26
-48 8z"/>
<path d="M12576 1081 c-4 -5 3 -7 14 -4 26 7 26 -18 0 -42 -27 -25 -25 -35 8
-34 16 1 20 3 10 6 -16 4 -16 6 -2 29 9 13 14 31 10 39 -6 16 -32 20 -40 6z"/>
<path d="M12650 1081 c0 -5 9 -7 20 -4 29 8 25 -15 -7 -49 l-27 -28 35 1 c25
1 28 3 11 6 l-24 5 22 23 c26 27 21 55 -10 55 -11 0 -20 -4 -20 -9z"/>
<path d="M6097 1073 c-6 -11 4 -73 12 -73 7 0 6 68 -2 76 -3 3 -7 2 -10 -3z"/>
<path d="M5988 1043 c-4 -35 -28 -43 -28 -9 0 14 -5 26 -11 26 -6 0 -9 -12 -7
-27 2 -22 9 -29 31 -31 25 -3 27 -1 27 32 0 42 -7 48 -12 9z"/>
<path d="M6024 1059 c-4 -7 3 -20 17 -29 l23 -18 -25 -5 c-23 -4 -23 -4 4 -6
32 -1 38 28 7 36 -11 3 -17 9 -15 14 3 4 13 5 22 2 11 -4 14 -3 9 5 -9 15 -33
15 -42 1z"/>
<path d="M6147 1056 c-22 -22 -10 -56 19 -56 28 0 42 25 27 48 -14 23 -29 25
-46 8z m39 -35 c-11 -18 -36 -13 -36 7 0 10 3 22 7 26 10 10 37 -20 29 -33z"/>
<path d="M6233 1063 c-7 -3 -12 -19 -12 -36 l1 -32 7 29 c3 17 11 30 16 30 6
0 13 -13 16 -30 l6 -29 4 28 c5 37 22 38 31 1 6 -28 6 -28 5 6 -2 31 -5 35
-32 36 -16 0 -36 -1 -42 -3z"/>
<path d="M6342 1061 c-21 -13 -11 -56 13 -57 15 -1 16 0 3 3 -27 7 -21 23 7
23 27 0 32 9 13 28 -14 14 -19 15 -36 3z m33 -11 c3 -5 -3 -10 -15 -10 -12 0
-18 5 -15 10 3 6 10 10 15 10 5 0 12 -4 15 -10z"/>
<path d="M6423 1063 c-7 -3 -12 -19 -12 -36 2 -28 2 -29 6 -7 3 14 10 28 16
32 14 9 6 17 -10 11z"/>
<path d="M6460 1055 c-10 -12 -7 -17 16 -26 l29 -12 -25 -7 -25 -8 28 -1 c32
-1 38 24 7 34 -28 9 -25 28 3 20 17 -5 19 -4 7 4 -20 14 -25 14 -40 -4z"/>
<path d="M8265 1060 c-3 -5 0 -7 8 -4 8 3 18 1 21 -4 3 -6 -5 -13 -19 -16 -26
-7 -32 -20 -15 -31 6 -4 9 -1 8 6 -2 7 6 15 16 17 14 3 17 0 13 -12 -4 -9 -2
-16 3 -16 17 0 11 57 -6 64 -21 8 -22 8 -29 -4z"/>
<path d="M12082 1058 c-15 -15 -16 -45 -2 -53 6 -3 7 1 4 9 -5 12 0 16 20 16
14 0 26 4 26 8 0 9 -21 32 -30 32 -3 0 -11 -5 -18 -12z m33 -8 c3 -5 -3 -10
-15 -10 -12 0 -18 5 -15 10 3 6 10 10 15 10 5 0 12 -4 15 -10z"/>
<path d="M12170 1066 c0 -2 7 -7 16 -10 8 -3 12 -2 9 4 -6 10 -25 14 -25 6z"/>
<path d="M12146 1045 c-7 -19 3 -45 16 -45 7 0 6 5 -1 14 -6 7 -9 21 -5 30 3
9 4 16 1 16 -3 0 -7 -7 -11 -15z"/>
<path d="M5593 1040 c-28 -11 -42 -58 -22 -72 13 -9 136 -2 165 9 34 13 2 57
-38 52 -13 -2 -33 2 -45 9 -25 14 -30 14 -60 2z m71 -33 c13 -21 -5 -37 -44
-37 -40 0 -54 14 -40 39 14 27 67 26 84 -2z m65 -1 c10 -12 8 -16 -10 -21 -13
-5 -25 -2 -30 6 -17 28 19 41 40 15z"/>
<path d="M7860 1010 c0 -5 5 -10 11 -10 5 0 7 5 4 10 -3 6 -8 10 -11 10 -2 0
-4 -4 -4 -10z"/>
<path d="M11557 1009 c7 -7 15 -10 18 -7 3 3 -2 9 -12 12 -14 6 -15 5 -6 -5z"/>
<path d="M11637 1009 c7 -7 15 -10 18 -7 3 3 -2 9 -12 12 -14 6 -15 5 -6 -5z"/>
<path d="M12185 1010 c-3 -5 -1 -10 4 -10 6 0 11 5 11 10 0 6 -2 10 -4 10 -3
0 -8 -4 -11 -10z"/>
<path d="M12336 995 c-9 -26 -7 -32 5 -12 6 10 9 21 6 23 -2 3 -7 -2 -11 -11z"/>
<path d="M9220 884 c0 -17 4 -23 12 -18 7 5 25 7 40 6 15 -1 28 2 28 7 0 5 -8
8 -17 7 -10 -2 -21 2 -25 8 -5 8 -8 7 -8 -1 0 -7 -5 -13 -11 -13 -6 0 -9 7 -5
15 3 8 1 15 -4 15 -6 0 -10 -12 -10 -26z"/>
<path d="M10140 901 c13 -10 13 -12 0 -22 -13 -9 -13 -10 0 -6 8 2 15 10 15
17 0 7 -7 15 -15 17 -13 4 -13 3 0 -6z"/>
<path d="M9376 892 c-2 -4 -1 -14 5 -22 7 -12 9 -10 9 8 0 23 -5 28 -14 14z"/>
<path d="M10256 892 c-2 -4 -1 -14 5 -22 7 -12 9 -10 9 8 0 23 -5 28 -14 14z"/>
<path d="M9311 874 c0 -11 3 -14 6 -6 3 7 2 16 -1 19 -3 4 -6 -2 -5 -13z"/>
<path d="M9331 874 c0 -11 3 -14 6 -6 3 7 2 16 -1 19 -3 4 -6 -2 -5 -13z"/>
<path d="M9350 876 c0 -8 4 -17 9 -20 5 -4 7 3 4 14 -6 23 -13 26 -13 6z"/>
<path d="M9441 874 c0 -11 3 -14 6 -6 3 7 2 16 -1 19 -3 4 -6 -2 -5 -13z"/>
<path d="M9463 869 c1 -25 24 -38 24 -13 0 7 -4 11 -8 8 -4 -2 -10 4 -12 13
-3 10 -4 7 -4 -8z"/>
<path d="M10191 877 c-1 -11 -6 -15 -13 -11 -7 5 -8 3 -3 -5 10 -16 29 2 22
21 -4 8 -6 7 -6 -5z"/>
<path d="M10211 874 c0 -11 3 -14 6 -6 3 7 2 16 -1 19 -3 4 -6 -2 -5 -13z"/>
<path d="M10230 876 c0 -8 4 -17 9 -20 5 -4 7 3 4 14 -6 23 -13 26 -13 6z"/>
<path d="M9230 760 c-12 -7 -11 -11 0 -25 11 -13 11 -18 1 -24 -10 -7 -10 -9
1 -13 19 -7 38 1 38 17 0 7 -6 16 -12 18 -10 4 -10 8 0 15 11 8 11 10 -1 15
-7 3 -20 1 -27 -3z"/>
<path d="M9290 760 c0 -5 7 -7 15 -4 8 4 15 8 15 10 0 2 -7 4 -15 4 -8 0 -15
-4 -15 -10z"/>
<path d="M9356 762 c-2 -4 4 -8 14 -8 10 0 16 4 14 8 -3 4 -9 8 -14 8 -5 0
-11 -4 -14 -8z"/>
<path d="M10137 763 c-14 -13 -7 -32 14 -38 16 -6 18 -9 8 -15 -7 -5 -18 -6
-24 -3 -5 3 -5 0 2 -7 10 -11 15 -11 29 1 15 12 14 15 -5 30 -25 21 -27 31 -4
22 11 -4 14 -3 9 5 -8 13 -19 15 -29 5z"/>
<path d="M10245 760 c-3 -6 1 -7 9 -4 21 8 20 -14 -1 -40 -16 -19 -15 -19 6 1
15 13 21 28 18 37 -7 18 -23 21 -32 6z"/>
<path d="M10391 757 c-15 -15 -14 -42 2 -56 17 -14 37 5 37 35 0 25 -22 38
-39 21z m29 -27 c0 -10 -5 -22 -10 -25 -13 -8 -24 20 -16 41 8 20 26 9 26 -16z"/>
<path d="M9418 730 c2 -16 6 -30 8 -30 2 0 4 14 4 30 0 17 -4 30 -8 30 -5 0
-7 -13 -4 -30z"/>
<path d="M9506 744 c-3 -9 -2 -23 3 -32 8 -13 10 -10 9 16 -1 36 -3 39 -12 16z"/>
<path d="M9547 736 c-15 -23 -15 -24 8 -28 31 -6 33 -4 27 27 -6 31 -15 32
-35 1z m23 -1 c0 -8 -4 -15 -10 -15 -5 0 -7 7 -4 15 4 8 8 15 10 15 2 0 4 -7
4 -15z"/>
<path d="M10196 752 c7 -4 14 -18 17 -32 4 -21 4 -20 6 8 1 24 -3 32 -16 32
-12 0 -14 -3 -7 -8z"/>
<path d="M10313 748 c-22 -29 -22 -36 2 -40 22 -5 25 -2 25 23 0 31 -11 37
-27 17z m13 -25 c-10 -10 -19 5 -10 18 6 11 8 11 12 0 2 -7 1 -15 -2 -18z"/>
<path d="M10458 730 c2 -16 6 -30 8 -30 2 0 4 14 4 30 0 17 -4 30 -8 30 -5 0
-7 -13 -4 -30z"/>
<path d="M9302 734 c9 -3 19 -13 22 -22 3 -12 4 -12 3 3 -1 12 -10 21 -22 22
-15 1 -15 0 -3 -3z"/>
<path d="M9340 726 c0 -7 8 -20 18 -27 15 -12 16 -12 5 2 -7 9 -10 19 -6 22
11 12 21 8 26 -10 4 -14 5 -12 6 5 1 17 -4 22 -24 22 -15 0 -25 -6 -25 -14z"/>
<path d="M4025 669 c-4 -6 -4 -13 -1 -16 3 -4 6 -1 6 5 0 6 8 13 18 15 15 4
15 5 0 6 -9 0 -20 -4 -23 -10z"/>
<path d="M8841 540 c-13 -11 -29 -20 -36 -20 -23 0 -37 -28 -37 -76 0 -55 31
-93 78 -97 26 -2 29 1 32 31 3 30 1 33 -17 27 -16 -5 -21 -2 -21 12 0 11 -6
25 -12 31 -8 8 -9 15 -3 20 6 4 10 18 10 32 0 18 6 26 23 28 12 2 22 10 22 18
0 19 -10 17 -39 -6z"/>
<path d="M14606 525 c-8 -8 -19 -15 -24 -15 -14 0 -2 -123 12 -132 6 -4 25 -8
41 -8 17 0 35 4 41 8 14 9 26 132 12 132 -5 0 -16 7 -24 15 -9 8 -22 15 -29
15 -7 0 -20 -7 -29 -15z m47 -12 c-7 -2 -21 -2 -30 0 -10 3 -4 5 12 5 17 0 24
-2 18 -5z m27 -68 c0 -49 -2 -55 -24 -61 -14 -3 -34 -3 -45 1 -18 5 -21 14
-21 61 l0 54 45 0 45 0 0 -55z"/>
<path d="M14613 440 c0 -25 2 -35 4 -22 2 12 2 32 0 45 -2 12 -4 2 -4 -23z"/>
<path d="M14653 440 c0 -25 2 -35 4 -22 2 12 2 32 0 45 -2 12 -4 2 -4 -23z"/>
<path d="M14172 466 c-65 -67 -74 -86 -44 -86 20 0 142 119 142 138 0 29 -41
7 -98 -52z m28 -11 c-35 -35 -66 -62 -69 -59 -7 6 110 123 124 124 5 0 -19
-29 -55 -65z"/>
<path d="M7786 488 c-15 -46 -15 -67 0 -79 19 -15 51 1 45 23 -2 7 -4 24 -5
38 -1 27 -33 41 -40 18z m34 -13 c0 -8 -7 -15 -15 -15 -8 0 -15 7 -15 15 0 8
7 15 15 15 8 0 15 -7 15 -15z m-2 -48 c2 -10 -3 -17 -12 -17 -18 0 -29 16 -21
31 9 14 29 6 33 -14z"/>
<path d="M7860 475 c0 -14 4 -25 9 -25 5 0 7 9 4 19 -4 14 1 21 19 24 21 4 20
4 -4 6 -24 1 -28 -3 -28 -24z"/>
<path d="M7946 488 c-14 -45 -15 -67 -1 -78 27 -22 45 -4 42 42 -1 32 -7 44
-20 46 -9 2 -19 -2 -21 -10z m32 -16 c2 -7 -3 -12 -12 -12 -9 0 -16 7 -16 16
0 17 22 14 28 -4z m0 -45 c2 -10 -3 -17 -12 -17 -18 0 -29 16 -21 31 9 14 29
6 33 -14z"/>
<path d="M8031 464 c-12 -20 -21 -38 -19 -39 2 -2 17 -5 33 -7 29 -3 30 -2 27
32 -5 52 -17 56 -41 14z m20 -27 c-17 -17 -24 -1 -10 25 12 21 14 21 17 4 2
-10 -1 -23 -7 -29z"/>
<path d="M8105 490 c-4 -6 -4 -14 -1 -17 3 -4 6 -1 6 5 0 7 7 12 15 12 22 0
18 -34 -5 -55 -27 -25 -25 -35 8 -34 16 1 20 3 10 6 -22 6 -23 17 -3 33 9 7
15 23 13 34 -3 23 -32 34 -43 16z"/>
<path d="M8343 493 c-18 -7 -16 -68 2 -83 33 -27 64 47 33 78 -13 13 -16 13
-35 5z m32 -44 c0 -24 -5 -34 -15 -34 -16 0 -25 37 -16 62 10 26 31 8 31 -28z"/>
<path d="M11390 491 c0 -5 9 -7 20 -4 11 3 20 7 20 9 0 2 -9 4 -20 4 -11 0
-20 -4 -20 -9z"/>
<path d="M11478 493 c26 -5 26 -9 7 -43 -8 -14 -14 -29 -14 -35 0 -14 38 57
39 73 0 7 -11 11 -27 11 -24 -2 -25 -2 -5 -6z"/>
<path d="M11560 486 c-16 -21 -6 -46 20 -46 11 0 20 -4 20 -9 0 -18 -21 -23
-38 -10 -16 12 -16 12 0 -6 25 -27 50 -4 46 44 -3 40 -26 52 -48 27z m38 -19
c2 -12 -3 -17 -17 -17 -12 0 -21 6 -21 13 0 31 32 34 38 4z"/>
<path d="M11641 473 c1 -23 2 -24 6 -6 2 13 13 24 26 26 18 4 17 5 -5 6 -24 1
-28 -3 -27 -26z"/>
<path d="M11980 455 c0 -50 15 -64 49 -45 14 7 21 21 21 38 0 34 -16 52 -47
52 -21 0 -23 -5 -23 -45z m44 29 c35 -13 14 -74 -25 -74 -5 0 -9 18 -9 40 0
40 5 45 34 34z"/>
<path d="M12260 476 c-18 -48 17 -94 48 -62 16 16 10 46 -9 46 -8 0 -8 -4 1
-15 9 -11 10 -19 2 -27 -17 -17 -32 1 -29 35 2 23 8 32 20 31 9 -1 14 2 11 7
-10 17 -35 9 -44 -15z"/>
<path d="M12415 490 c-4 -6 -4 -14 -1 -17 3 -4 6 -1 6 5 0 7 7 12 15 12 21 0
19 -23 -5 -53 -26 -33 -25 -37 8 -36 24 2 25 2 4 6 l-24 5 22 23 c12 13 20 31
18 41 -4 22 -33 31 -43 14z"/>
<path d="M12492 488 c-27 -27 -2 -95 30 -83 21 8 29 41 18 71 -10 26 -29 31
-48 12z m41 -20 c6 -23 -8 -58 -23 -58 -13 0 -22 37 -15 60 8 26 31 26 38 -2z"/>
<path d="M12576 491 c-3 -5 3 -7 14 -4 26 7 26 -16 0 -50 -26 -33 -25 -37 8
-36 24 2 25 2 4 6 l-24 5 22 23 c12 13 20 31 18 41 -4 21 -33 31 -42 15z"/>
<path d="M12649 483 c-13 -16 -12 -17 4 -4 30 24 44 -2 18 -35 -28 -35 -27
-44 7 -43 23 2 24 2 5 6 l-23 4 22 29 c33 45 1 86 -33 43z"/>
<path d="M8180 454 c0 -45 21 -64 47 -43 17 15 13 51 -5 57 -11 3 -11 1 -1
-17 10 -15 11 -23 2 -32 -17 -17 -36 0 -30 27 2 12 0 29 -4 36 -6 8 -9 -2 -9
-28z"/>
<path d="M8296 446 c4 -26 -9 -42 -27 -30 -8 4 -7 9 2 15 10 6 10 9 2 9 -17 0
-27 -20 -15 -32 17 -17 52 1 52 27 0 13 -4 26 -9 30 -6 3 -8 -5 -5 -19z"/>
<path d="M11380 460 c0 -5 5 -10 10 -10 6 0 10 5 10 10 0 6 -4 10 -10 10 -5 0
-10 -4 -10 -10z"/>
<path d="M12077 463 c-25 -24 10 -72 40 -54 16 9 15 10 -7 8 -21 -2 -25 2 -25
26 1 30 1 30 -8 20z"/>
<path d="M12116 457 c3 -10 9 -15 12 -12 3 3 0 11 -7 18 -10 9 -11 8 -5 -6z"/>
<path d="M12146 454 c-12 -32 31 -73 48 -45 4 5 -2 7 -13 4 -22 -6 -36 24 -20
43 7 9 8 14 1 14 -5 0 -13 -7 -16 -16z"/>
<path d="M12185 460 c3 -5 8 -10 11 -10 2 0 4 5 4 10 0 6 -5 10 -11 10 -5 0
-7 -4 -4 -10z"/>
<path d="M7894 438 c1 -17 -4 -23 -18 -21 -11 1 -15 -2 -9 -8 16 -16 43 2 43
27 0 13 -4 24 -8 24 -5 0 -8 -10 -8 -22z"/>
<path d="M11418 453 c15 -6 16 -29 2 -38 -6 -4 -17 -1 -25 5 -9 7 -15 8 -15 2
0 -18 33 -23 48 -8 16 16 10 46 -10 45 -10 0 -10 -2 0 -6z"/>
<path d="M11674 438 c1 -17 -4 -23 -18 -21 -11 1 -15 -2 -9 -8 16 -16 43 2 43
27 0 13 -4 24 -8 24 -5 0 -8 -10 -8 -22z"/>
<path d="M9227 443 c-11 -10 -8 -41 4 -49 6 -3 16 -1 22 6 9 9 8 14 -5 24 -10
7 -15 16 -11 19 3 4 4 7 1 7 -2 0 -8 -3 -11 -7z m23 -33 c0 -5 -4 -10 -10 -10
-5 0 -10 5 -10 10 0 6 5 10 10 10 6 0 10 -4 10 -10z"/>
<path d="M9413 424 c-7 -18 11 -39 26 -30 6 4 10 15 10 24 -1 15 -2 15 -6 0
-2 -10 -9 -18 -15 -18 -6 0 -8 9 -5 20 6 24 -1 27 -10 4z"/>
<path d="M9533 425 c-3 -9 -3 -18 -1 -21 3 -3 8 4 11 16 6 23 -1 27 -10 5z"/>
<path d="M9585 431 c-3 -5 -2 -12 3 -15 5 -3 9 1 9 9 0 17 -3 19 -12 6z"/>
<path d="M9390 421 c0 -7 -4 -9 -10 -6 -5 3 -10 2 -10 -4 0 -5 4 -12 9 -15 10
-6 25 24 16 32 -3 3 -5 0 -5 -7z"/>
<path d="M9462 410 c0 -14 2 -19 5 -12 2 6 2 18 0 25 -3 6 -5 1 -5 -13z"/>
<path d="M9480 416 c0 -8 4 -17 9 -20 5 -4 7 3 4 14 -6 23 -13 26 -13 6z"/>
<path d="M12335 399 c-4 -6 -5 -12 -2 -15 2 -3 7 2 10 11 7 17 1 20 -8 4z"/>
<path d="M4173 185 c0 -22 2 -30 4 -17 2 12 2 30 0 40 -3 9 -5 -1 -4 -23z"/>
<path d="M4038 158 c5 -5 16 -8 23 -6 8 3 3 7 -10 11 -17 4 -21 3 -13 -5z"/>
<path d="M9270 110 c-8 -5 -10 -10 -5 -10 6 0 17 5 25 10 8 5 11 10 5 10 -5 0
-17 -5 -25 -10z"/>
<path d="M9320 83 c0 -13 5 -23 10 -23 13 0 13 11 0 30 -8 12 -10 11 -10 -7z"/>
<path d="M9247 70 c-3 -11 -1 -20 4 -20 5 0 9 9 9 20 0 11 -2 20 -4 20 -2 0
-6 -9 -9 -20z"/>
<path d="M9427 83 c-3 -5 6 -8 19 -8 13 0 24 3 24 8 0 4 -9 7 -19 7 -11 0 -22
-3 -24 -7z"/>
<path d="M9722 55 c0 -22 2 -32 5 -23 2 9 14 19 26 21 l22 4 -22 2 c-12 0 -24
9 -26 19 -3 9 -5 -1 -5 -23z"/>
<path d="M9492 45 c0 -17 2 -22 5 -12 2 9 2 23 0 30 -3 6 -5 -1 -5 -18z"/>
<path d="M9584 45 c1 -12 9 -21 21 -22 14 -1 15 0 3 3 -9 3 -19 13 -21 22 -3
12 -4 11 -3 -3z"/>
<path d="M9634 55 c-8 -19 3 -35 24 -34 14 0 13 2 -3 9 -19 8 -19 9 3 9 24 1
29 15 10 27 -7 4 -8 3 -4 -4 4 -7 1 -12 -9 -12 -9 0 -13 5 -10 10 3 6 4 10 0
10 -3 0 -8 -7 -11 -15z"/>
<path d="M9826 57 c3 -10 9 -15 12 -12 3 3 0 11 -7 18 -10 9 -11 8 -5 -6z"/>
<path d="M9852 35 c-1 -22 2 -35 6 -29 4 6 14 14 22 17 12 4 12 6 -2 6 -9 1
-19 11 -21 24 -2 12 -5 5 -5 -18z"/>
<path d="M9912 35 c-1 -22 2 -35 6 -29 4 6 14 14 22 17 12 4 12 6 -2 6 -9 1
-19 11 -21 24 -2 12 -5 5 -5 -18z"/>
<path d="M9970 48 c0 -23 4 -28 23 -27 21 0 21 1 2 9 -17 7 -17 9 -2 9 9 1 17
9 17 19 0 14 -2 15 -10 2 -9 -13 -11 -13 -20 0 -8 12 -10 9 -10 -12z"/>
<path d="M9794 40 c1 -8 10 -16 21 -17 15 -1 15 0 3 3 -9 3 -19 11 -21 17 -2
7 -3 5 -3 -3z"/>
<path d="M9525 40 c-7 -11 22 -26 32 -16 4 3 -2 6 -13 7 -18 0 -18 1 1 9 16 7
17 9 3 9 -9 1 -20 -4 -23 -9z"/>
<path d="M9251 28 c-1 -21 15 -32 25 -17 4 7 3 9 -4 5 -6 -3 -13 2 -15 11 -4
16 -5 16 -6 1z"/>
<path d="M9427 28 c6 -10 30 -10 36 0 3 4 -5 7 -18 7 -13 0 -21 -3 -18 -7z"/>
<path d="M9320 15 c0 -8 2 -15 4 -15 2 0 6 7 10 15 3 8 1 15 -4 15 -6 0 -10
-7 -10 -15z"/>
</g>
</svg>
